<?xml version="1.0" encoding="UTF-8" standalone="no"?>
<svg
   xmlns:dc="http://purl.org/dc/elements/1.1/"
   xmlns:cc="http://creativecommons.org/ns#"
   xmlns:rdf="http://www.w3.org/1999/02/22-rdf-syntax-ns#"
   xmlns:svg="http://www.w3.org/2000/svg"
   xmlns="http://www.w3.org/2000/svg"
   viewBox="0 0 292 79"
   height="79"
   width="292"
   version="1.1"
   id="svg2">
  <rect
     y="-2.5811589"
     x="2.2802734e-08"
     height="79"
     width="292"
     id="rect3346"
     style="fill:#ebebeb;fill-opacity:1;fill-rule:evenodd;stroke:none;stroke-width:1.40618634px;stroke-linecap:butt;stroke-linejoin:miter;stroke-opacity:1" />
  <g
     id="text4213"
     style="font-style:normal;font-weight:normal;font-size:12.5px;line-height:125%;font-family:Tahoma;letter-spacing:0px;word-spacing:0px;fill:#164f94;fill-opacity:1;stroke:none;stroke-width:1px;stroke-linecap:butt;stroke-linejoin:miter;stroke-opacity:1">
    <path
       id="path4957"
       style="font-style:normal;font-weight:normal;font-size:12.5px;line-height:125%;font-family:Tahoma;letter-spacing:0px;word-spacing:0px;fill:#164f94;fill-opacity:1;stroke:none;stroke-width:1px;stroke-linecap:butt;stroke-linejoin:miter;stroke-opacity:1"
       d="m 104.26629,55.927868 q 0,1.721191 -0.83008,2.661133 -0.83008,0.933838 -2.20947,0.933838 -1.422121,0 -2.239992,-0.964356 -0.811768,-0.970459 -0.811768,-2.630615 0,-1.708984 0.836182,-2.655029 0.842285,-0.946045 2.215578,-0.946045 1.37939,0 2.20947,0.946045 0.83008,0.939941 0.83008,2.655029 z m -1.18408,0 q 0,-1.324463 -0.48218,-1.965332 -0.48218,-0.646973 -1.37329,-0.646973 -0.89722,0 -1.3855,0.646973 -0.482178,0.640869 -0.482178,1.965332 0,1.281738 0.482178,1.947021 0.48828,0.65918 1.3855,0.65918 0.88501,0 1.36719,-0.646973 0.48828,-0.653076 0.48828,-1.959228 z" />
    <path
       id="path4959"
       style="font-style:normal;font-weight:normal;font-size:12.5px;line-height:125%;font-family:Tahoma;letter-spacing:0px;word-spacing:0px;fill:#164f94;fill-opacity:1;stroke:none;stroke-width:1px;stroke-linecap:butt;stroke-linejoin:miter;stroke-opacity:1"
       d="m 111.16326,55.744762 q 0,1.702881 -0.81787,2.716065 -0.81177,1.00708 -2.05688,1.00708 -0.5066,0 -0.89722,-0.115967 -0.39063,-0.115967 -0.79956,-0.360107 l 0,2.856445 -1.14746,0 0,-9.332275 1.14746,0 0,0.714111 q 0.42724,-0.384522 0.94604,-0.640869 0.52491,-0.262451 1.14136,-0.262451 1.17188,0 1.82495,0.927734 0.65918,0.927734 0.65918,2.490234 z m -1.18408,0.128174 q 0,-1.165771 -0.37232,-1.80664 -0.37231,-0.646973 -1.20849,-0.646973 -0.48828,0 -0.94605,0.219727 -0.45166,0.213623 -0.86059,0.555419 l 0,3.863526 q 0.45166,0.219726 0.76904,0.299072 0.32349,0.07935 0.73853,0.07935 0.89111,0 1.38549,-0.653076 0.49439,-0.653077 0.49439,-1.910401 z" />
    <path
       id="path4961"
       style="font-style:normal;font-weight:normal;font-size:12.5px;line-height:125%;font-family:Tahoma;letter-spacing:0px;word-spacing:0px;fill:#164f94;fill-opacity:1;stroke:none;stroke-width:1px;stroke-linecap:butt;stroke-linejoin:miter;stroke-opacity:1"
       d="m 115.31365,59.492321 q -1.62964,0 -2.53296,-0.915527 -0.89721,-0.921631 -0.89721,-2.612305 0,-1.66626 0.8728,-2.648926 0.8728,-0.988769 2.28271,-0.988769 0.63477,0 1.12305,0.183105 0.48828,0.183106 0.85449,0.573731 0.36621,0.390625 0.56153,0.958252 0.19531,0.561523 0.19531,1.379394 l 0,0.622559 -4.72412,0 q 0,1.190185 0.59814,1.818847 0.59815,0.628662 1.65406,0.628662 0.37841,0 0.73852,-0.08545 0.36621,-0.08545 0.65918,-0.219726 0.31128,-0.140381 0.5249,-0.268555 0.21363,-0.134277 0.35401,-0.250244 l 0.0671,0 0,1.251221 q -0.20142,0.07935 -0.50049,0.201416 -0.29908,0.115966 -0.53711,0.183105 -0.3357,0.09155 -0.61035,0.140381 -0.26856,0.04883 -0.6836,0.04883 z m 1.34278,-4.327393 q -0.0122,-0.463867 -0.10987,-0.79956 -0.0977,-0.335693 -0.28076,-0.567627 -0.20142,-0.256348 -0.5188,-0.390625 -0.31128,-0.134277 -0.77514,-0.134277 -0.45777,0 -0.78125,0.14038 -0.31739,0.134278 -0.57984,0.396729 -0.25635,0.268555 -0.39062,0.598144 -0.13428,0.323487 -0.1709,0.756836 l 3.60718,0 z" />
    <path
       id="path4963"
       style="font-style:normal;font-weight:normal;font-size:12.5px;line-height:125%;font-family:Tahoma;letter-spacing:0px;word-spacing:0px;fill:#164f94;fill-opacity:1;stroke:none;stroke-width:1px;stroke-linecap:butt;stroke-linejoin:miter;stroke-opacity:1"
       d="m 124.30413,59.33363 -1.14746,0 0,-3.881836 q 0,-0.469971 -0.0488,-0.872803 -0.0427,-0.408936 -0.1709,-0.653076 -0.14038,-0.256348 -0.39062,-0.378418 -0.25025,-0.128174 -0.6836,-0.128174 -0.42724,0 -0.88501,0.231934 -0.45166,0.22583 -0.88501,0.592041 l 0,5.090332 -1.14746,0 0,-6.817627 1.14746,0 0,0.756836 q 0.5127,-0.457764 1.01319,-0.701905 0.50049,-0.24414 1.05591,-0.24414 1.00708,0 1.5747,0.665283 0.56763,0.65918 0.56763,1.916504 l 0,4.425049 z" />
    <path
       id="path4965"
       style="font-style:normal;font-weight:normal;font-size:12.5px;line-height:125%;font-family:Tahoma;letter-spacing:0px;word-spacing:0px;fill:#164f94;fill-opacity:1;stroke:none;stroke-width:1px;stroke-linecap:butt;stroke-linejoin:miter;stroke-opacity:1"
       d="m 131.67718,59.498425 q -0.6836,0 -1.28174,-0.183106 -0.59204,-0.183105 -0.98267,-0.390625 l 0,-1.287842 0.061,0 q 0.14648,0.115967 0.3418,0.256348 0.20141,0.140381 0.531,0.292969 0.29297,0.134277 0.64087,0.238037 0.354,0.10376 0.73242,0.10376 0.27466,0 0.58594,-0.06104 0.31128,-0.06714 0.46387,-0.164795 0.21362,-0.14038 0.30517,-0.299072 0.0977,-0.158691 0.0977,-0.476074 0,-0.408936 -0.22583,-0.616455 -0.21973,-0.20752 -0.78735,-0.3479 -0.21973,-0.05493 -0.57374,-0.128174 -0.354,-0.07324 -0.65307,-0.158692 -0.78125,-0.22583 -1.13526,-0.695801 -0.354,-0.476074 -0.354,-1.14746 0,-0.921631 0.6958,-1.501465 0.6958,-0.579834 1.84937,-0.579834 0.56762,0 1.14135,0.140381 0.57373,0.14038 0.96436,0.354003 l 0,1.226807 -0.061,0 q -0.43945,-0.3479 -0.98266,-0.549316 -0.53711,-0.201416 -1.08643,-0.201416 -0.56762,0 -0.95825,0.238037 -0.39062,0.238037 -0.39062,0.720215 0,0.427246 0.23193,0.640869 0.23193,0.207519 0.74463,0.341797 0.25635,0.06714 0.56763,0.134277 0.31738,0.06104 0.66528,0.146484 0.75683,0.189209 1.13525,0.628663 0.38452,0.439453 0.38452,1.196289 0,0.439453 -0.177,0.836181 -0.1709,0.390625 -0.50659,0.671387 -0.36621,0.305176 -0.83008,0.463867 -0.45776,0.158692 -1.15356,0.158692 z" />
    <path
       id="path4967"
       style="font-style:normal;font-weight:normal;font-size:12.5px;line-height:125%;font-family:Tahoma;letter-spacing:0px;word-spacing:0px;fill:#164f94;fill-opacity:1;stroke:none;stroke-width:1px;stroke-linecap:butt;stroke-linejoin:miter;stroke-opacity:1"
       d="m 141.03387,55.927868 q 0,1.721191 -0.83008,2.661133 -0.83008,0.933838 -2.20947,0.933838 -1.42212,0 -2.23999,-0.964356 -0.81177,-0.970459 -0.81177,-2.630615 0,-1.708984 0.83618,-2.655029 0.84229,-0.946045 2.21558,-0.946045 1.37939,0 2.20947,0.946045 0.83008,0.939941 0.83008,2.655029 z m -1.18409,0 q 0,-1.324463 -0.48217,-1.965332 -0.48218,-0.646973 -1.37329,-0.646973 -0.89722,0 -1.3855,0.646973 -0.48218,0.640869 -0.48218,1.965332 0,1.281738 0.48218,1.947021 0.48828,0.65918 1.3855,0.65918 0.88501,0 1.36718,-0.646973 0.48828,-0.653076 0.48828,-1.959228 z" />
    <path
       id="path4969"
       style="font-style:normal;font-weight:normal;font-size:12.5px;line-height:125%;font-family:Tahoma;letter-spacing:0px;word-spacing:0px;fill:#164f94;fill-opacity:1;stroke:none;stroke-width:1px;stroke-linecap:butt;stroke-linejoin:miter;stroke-opacity:1"
       d="m 147.5219,59.33363 -1.14746,0 0,-0.756836 q -0.531,0.463867 -1.00708,0.708007 -0.47607,0.238038 -1.06201,0.238038 -0.44556,0 -0.84228,-0.146485 -0.39063,-0.146484 -0.6836,-0.463867 -0.29297,-0.317383 -0.45776,-0.799561 -0.15869,-0.482177 -0.15869,-1.171875 l 0,-4.425048 1.14746,0 0,3.881836 q 0,0.543212 0.0366,0.90332 0.0427,0.354004 0.1831,0.622558 0.14039,0.262452 0.37842,0.384522 0.24414,0.12207 0.6958,0.12207 0.42115,0 0.89722,-0.238037 0.47607,-0.238037 0.8728,-0.585937 l 0,-5.090332 1.14746,0 0,6.817627 z" />
    <path
       id="path4971"
       style="font-style:normal;font-weight:normal;font-size:12.5px;line-height:125%;font-family:Tahoma;letter-spacing:0px;word-spacing:0px;fill:#164f94;fill-opacity:1;stroke:none;stroke-width:1px;stroke-linecap:butt;stroke-linejoin:miter;stroke-opacity:1"
       d="m 152.80755,53.748913 -0.061,0 q -0.12817,-0.03662 -0.27465,-0.04273 -0.14039,-0.01221 -0.3418,-0.01221 -0.46387,0 -0.92163,0.201416 -0.45777,0.201416 -0.8667,0.598145 l 0,4.840088 -1.14746,0 0,-6.817627 1.14746,0 0,1.013183 q 0.62866,-0.55542 1.09253,-0.78125 0.46997,-0.231933 0.90942,-0.231933 0.177,0 0.26245,0.01221 0.0916,0.0061 0.20142,0.02441 l 0,1.196289 z" />
    <path
       id="path4973"
       style="font-style:normal;font-weight:normal;font-size:12.5px;line-height:125%;font-family:Tahoma;letter-spacing:0px;word-spacing:0px;fill:#164f94;fill-opacity:1;stroke:none;stroke-width:1px;stroke-linecap:butt;stroke-linejoin:miter;stroke-opacity:1"
       d="m 156.42083,59.486217 q -0.7019,0 -1.28784,-0.213623 -0.58594,-0.219726 -1.00708,-0.659179 -0.42114,-0.439453 -0.65308,-1.104737 -0.23193,-0.671386 -0.23193,-1.574707 0,-0.897216 0.23804,-1.550293 0.24414,-0.653076 0.64697,-1.098632 0.40283,-0.445557 1.00097,-0.683594 0.60425,-0.244141 1.29395,-0.244141 0.56152,0 1.08032,0.158692 0.5249,0.158691 0.93384,0.366211 l 0,1.287841 -0.0671,0 q -0.12207,-0.103759 -0.31738,-0.238037 -0.18921,-0.134277 -0.46387,-0.274658 -0.23804,-0.12207 -0.56152,-0.213623 -0.32349,-0.09155 -0.62256,-0.09155 -0.89111,0 -1.43433,0.677491 -0.53711,0.671386 -0.53711,1.904296 0,1.208496 0.5188,1.885987 0.5249,0.671386 1.45264,0.671386 0.56152,0 1.06811,-0.231933 0.5066,-0.231934 0.89722,-0.598145 l 0.0671,0 0,1.287842 q -0.1709,0.07935 -0.42725,0.195313 -0.25634,0.109863 -0.46386,0.164795 -0.29297,0.08545 -0.52491,0.128173 -0.23193,0.04883 -0.59814,0.04883 z" />
    <path
       id="path4975"
       style="font-style:normal;font-weight:normal;font-size:12.5px;line-height:125%;font-family:Tahoma;letter-spacing:0px;word-spacing:0px;fill:#164f94;fill-opacity:1;stroke:none;stroke-width:1px;stroke-linecap:butt;stroke-linejoin:miter;stroke-opacity:1"
       d="m 162.45721,59.492321 q -1.62964,0 -2.53296,-0.915527 -0.89722,-0.921631 -0.89722,-2.612305 0,-1.66626 0.8728,-2.648926 0.87281,-0.988769 2.28272,-0.988769 0.63476,0 1.12305,0.183105 0.48828,0.183106 0.85449,0.573731 0.36621,0.390625 0.56152,0.958252 0.19531,0.561523 0.19531,1.379394 l 0,0.622559 -4.72412,0 q 0,1.190185 0.59815,1.818847 0.59814,0.628662 1.65405,0.628662 0.37842,0 0.73853,-0.08545 0.36621,-0.08545 0.65917,-0.219726 0.31128,-0.140381 0.52491,-0.268555 0.21362,-0.134277 0.354,-0.250244 l 0.0671,0 0,1.251221 q -0.20142,0.07935 -0.50049,0.201416 -0.29907,0.115966 -0.53711,0.183105 -0.33569,0.09155 -0.61035,0.140381 -0.26855,0.04883 -0.68359,0.04883 z m 1.34277,-4.327393 q -0.0122,-0.463867 -0.10986,-0.79956 -0.0977,-0.335693 -0.28076,-0.567627 -0.20142,-0.256348 -0.5188,-0.390625 -0.31128,-0.134277 -0.77515,-0.134277 -0.45776,0 -0.78125,0.14038 -0.31738,0.134278 -0.57983,0.396729 -0.25635,0.268555 -0.39063,0.598144 -0.13428,0.323487 -0.1709,0.756836 l 3.60718,0 z" />
    <path
       id="path4977"
       style="fill:#4c7bcb;fill-opacity:1"
       d="m 172.70501,59.486217 q -0.7019,0 -1.28784,-0.213623 -0.58594,-0.219726 -1.00708,-0.659179 -0.42114,-0.439453 -0.65308,-1.104737 -0.23193,-0.671386 -0.23193,-1.574707 0,-0.897216 0.23803,-1.550293 0.24415,-0.653076 0.64698,-1.098632 0.40283,-0.445557 1.00097,-0.683594 0.60425,-0.244141 1.29395,-0.244141 0.56152,0 1.08032,0.158692 0.5249,0.158691 0.93384,0.366211 l 0,1.287841 -0.0671,0 q -0.12207,-0.103759 -0.31738,-0.238037 -0.18921,-0.134277 -0.46387,-0.274658 -0.23804,-0.12207 -0.56152,-0.213623 -0.32349,-0.09155 -0.62256,-0.09155 -0.89111,0 -1.43433,0.677491 -0.53711,0.671386 -0.53711,1.904296 0,1.208496 0.5188,1.885987 0.5249,0.671386 1.45264,0.671386 0.56152,0 1.06811,-0.231933 0.5066,-0.231934 0.89722,-0.598145 l 0.0671,0 0,1.287842 q -0.1709,0.07935 -0.42725,0.195313 -0.25634,0.109863 -0.46386,0.164795 -0.29297,0.08545 -0.52491,0.128173 -0.23193,0.04883 -0.59814,0.04883 z" />
    <path
       id="path4979"
       style="fill:#4c7bcb;fill-opacity:1"
       d="m 181.39031,55.927868 q 0,1.721191 -0.83008,2.661133 -0.83007,0.933838 -2.20947,0.933838 -1.42212,0 -2.23999,-0.964356 -0.81177,-0.970459 -0.81177,-2.630615 0,-1.708984 0.83619,-2.655029 0.84228,-0.946045 2.21557,-0.946045 1.3794,0 2.20947,0.946045 0.83008,0.939941 0.83008,2.655029 z m -1.18408,0 q 0,-1.324463 -0.48218,-1.965332 -0.48218,-0.646973 -1.37329,-0.646973 -0.89722,0 -1.3855,0.646973 -0.48217,0.640869 -0.48217,1.965332 0,1.281738 0.48217,1.947021 0.48828,0.65918 1.3855,0.65918 0.88501,0 1.36719,-0.646973 0.48828,-0.653076 0.48828,-1.959228 z" />
    <path
       id="path4981"
       style="fill:#4c7bcb;fill-opacity:1"
       d="m 187.92718,59.33363 -1.14746,0 0,-3.881836 q 0,-0.469971 -0.0488,-0.872803 -0.0427,-0.408936 -0.1709,-0.653076 -0.14038,-0.256348 -0.39063,-0.378418 -0.25024,-0.128174 -0.68359,-0.128174 -0.42724,0 -0.88501,0.231934 -0.45166,0.22583 -0.88501,0.592041 l 0,5.090332 -1.14746,0 0,-6.817627 1.14746,0 0,0.756836 q 0.5127,-0.457764 1.01319,-0.701905 0.50048,-0.24414 1.0559,-0.24414 1.00708,0 1.57471,0.665283 0.56763,0.65918 0.56763,1.916504 l 0,4.425049 z" />
    <path
       id="path4983"
       style="fill:#4c7bcb;fill-opacity:1"
       d="m 191.6137,59.467907 q -0.93994,0 -1.46484,-0.531006 -0.52491,-0.537109 -0.52491,-1.690674 l 0,-3.778076 -0.77514,0 0,-0.952148 0.77514,0 0,-1.959229 1.14747,0 0,1.959229 2.11181,0 0,0.952148 -2.11181,0 0,3.240967 q 0,0.518799 0.0183,0.79956 0.0183,0.280762 0.14038,0.524903 0.10376,0.213623 0.33569,0.323486 0.23193,0.10376 0.62866,0.10376 0.28076,0 0.54322,-0.07935 0.26245,-0.08545 0.37841,-0.140381 l 0.0671,0 0,1.031494 q -0.32348,0.09155 -0.65918,0.140381 -0.32959,0.05493 -0.61035,0.05493 z" />
    <path
       id="path4985"
       style="fill:#4c7bcb;fill-opacity:1"
       d="m 196.68572,59.492321 q -1.62964,0 -2.53296,-0.915527 -0.89721,-0.921631 -0.89721,-2.612305 0,-1.66626 0.8728,-2.648926 0.8728,-0.988769 2.28271,-0.988769 0.63477,0 1.12305,0.183105 0.48828,0.183106 0.85449,0.573731 0.36621,0.390625 0.56153,0.958252 0.19531,0.561523 0.19531,1.379394 l 0,0.622559 -4.72412,0 q 0,1.190185 0.59814,1.818847 0.59815,0.628662 1.65406,0.628662 0.37841,0 0.73852,-0.08545 0.36621,-0.08545 0.65918,-0.219726 0.31128,-0.140381 0.5249,-0.268555 0.21363,-0.134277 0.35401,-0.250244 l 0.0671,0 0,1.251221 q -0.20142,0.07935 -0.50049,0.201416 -0.29908,0.115966 -0.53711,0.183105 -0.3357,0.09155 -0.61035,0.140381 -0.26856,0.04883 -0.6836,0.04883 z m 1.34278,-4.327393 q -0.0122,-0.463867 -0.10987,-0.79956 -0.0977,-0.335693 -0.28076,-0.567627 -0.20142,-0.256348 -0.5188,-0.390625 -0.31128,-0.134277 -0.77514,-0.134277 -0.45777,0 -0.78125,0.14038 -0.31739,0.134278 -0.57984,0.396729 -0.25635,0.268555 -0.39062,0.598144 -0.13428,0.323487 -0.1709,0.756836 l 3.60718,0 z" />
    <path
       id="path4987"
       style="fill:#4c7bcb;fill-opacity:1"
       d="m 205.6762,59.33363 -1.14746,0 0,-3.881836 q 0,-0.469971 -0.0488,-0.872803 -0.0427,-0.408936 -0.1709,-0.653076 -0.14038,-0.256348 -0.39062,-0.378418 -0.25025,-0.128174 -0.6836,-0.128174 -0.42724,0 -0.88501,0.231934 -0.45166,0.22583 -0.885,0.592041 l 0,5.090332 -1.14747,0 0,-6.817627 1.14747,0 0,0.756836 q 0.51269,-0.457764 1.01318,-0.701905 0.50049,-0.24414 1.05591,-0.24414 1.00708,0 1.5747,0.665283 0.56763,0.65918 0.56763,1.916504 l 0,4.425049 z" />
    <path
       id="path4989"
       style="fill:#4c7bcb;fill-opacity:1"
       d="m 209.36272,59.467907 q -0.93994,0 -1.46484,-0.531006 -0.5249,-0.537109 -0.5249,-1.690674 l 0,-3.778076 -0.77515,0 0,-0.952148 0.77515,0 0,-1.959229 1.14746,0 0,1.959229 2.11182,0 0,0.952148 -2.11182,0 0,3.240967 q 0,0.518799 0.0183,0.79956 0.0183,0.280762 0.14038,0.524903 0.10376,0.213623 0.33569,0.323486 0.23194,0.10376 0.62867,0.10376 0.28076,0 0.54321,-0.07935 0.26245,-0.08545 0.37842,-0.140381 l 0.0671,0 0,1.031494 q -0.32349,0.09155 -0.65918,0.140381 -0.32959,0.05493 -0.61036,0.05493 z" />
    <path
       id="path4991"
       style="fill:#4c7bcb;fill-opacity:1"
       d="m 223.12005,59.33363 0,-3.942871 q 0,-0.469971 -0.0366,-0.8667 -0.0366,-0.402832 -0.15259,-0.628662 -0.12207,-0.24414 -0.3479,-0.360107 -0.22583,-0.115967 -0.61035,-0.115967 -0.35401,0 -0.76294,0.219727 -0.40283,0.213623 -0.83618,0.622558 0.006,0.10376 0.0122,0.250244 0.0122,0.140381 0.0122,0.335694 l 0,4.486084 -1.14746,0 0,-3.942871 q 0,-0.469971 -0.0366,-0.8667 -0.0366,-0.402832 -0.15259,-0.628662 -0.12207,-0.24414 -0.3479,-0.360107 -0.22583,-0.115967 -0.61035,-0.115967 -0.37232,0 -0.78125,0.231934 -0.40894,0.231933 -0.79346,0.592041 l 0,5.090332 -1.14746,0 0,-6.817627 1.14746,0 0,0.756836 q 0.45166,-0.451661 0.89111,-0.695801 0.44556,-0.250244 0.97657,-0.250244 0.60425,0 1.06811,0.274658 0.46997,0.274658 0.71411,0.90332 0.5188,-0.579834 1.01319,-0.878906 0.49438,-0.299072 1.07422,-0.299072 0.43945,0 0.79956,0.140381 0.3601,0.134277 0.62866,0.439453 0.27466,0.311279 0.42114,0.775146 0.15259,0.463867 0.15259,1.165772 l 0,4.486084 -1.14746,0 z" />
    <path
       id="path4993"
       style="fill:#4c7bcb;fill-opacity:1"
       d="m 229.66302,57.655163 0,-1.89209 q -0.40894,0.03662 -1.0376,0.10376 -0.62256,0.06103 -1.00708,0.177002 -0.45776,0.140381 -0.75684,0.433349 -0.29907,0.286866 -0.29907,0.805664 0,0.585938 0.32959,0.88501 0.32959,0.299072 0.96436,0.299072 0.54321,0 0.98266,-0.231933 0.43946,-0.238037 0.82398,-0.579834 z m 0,0.952148 q -0.14038,0.10376 -0.37842,0.292969 -0.23193,0.183105 -0.45166,0.292969 -0.30518,0.158691 -0.59204,0.24414 -0.28076,0.08545 -0.79346,0.08545 -0.42114,0 -0.79956,-0.158692 -0.37842,-0.158691 -0.66528,-0.445556 -0.27466,-0.280762 -0.43946,-0.689698 -0.16479,-0.415039 -0.16479,-0.872802 0,-0.708008 0.29907,-1.202393 0.29907,-0.500488 0.94605,-0.793457 0.57373,-0.262451 1.35498,-0.360107 0.78125,-0.10376 1.68457,-0.152588 l 0,-0.219727 q 0,-0.402832 -0.12207,-0.646973 -0.12207,-0.250244 -0.3418,-0.384521 -0.21973,-0.140381 -0.53711,-0.183106 -0.31738,-0.04883 -0.65308,-0.04883 -0.39672,0 -0.93383,0.122071 -0.53711,0.115966 -1.07422,0.341797 l -0.0671,0 0,-1.165772 q 0.31738,-0.09155 0.90942,-0.201416 0.59204,-0.109863 1.17188,-0.109863 0.7019,0 1.18408,0.109863 0.48218,0.109863 0.8667,0.396729 0.37231,0.280761 0.55542,0.726318 0.1831,0.445557 0.1831,1.086426 l 0,4.663086 -1.14135,0 0,-0.726319 z" />
    <path
       id="path4995"
       style="fill:#4c7bcb;fill-opacity:1"
       d="m 237.75628,59.33363 -1.14746,0 0,-3.881836 q 0,-0.469971 -0.0488,-0.872803 -0.0427,-0.408936 -0.1709,-0.653076 -0.14038,-0.256348 -0.39062,-0.378418 -0.25025,-0.128174 -0.6836,-0.128174 -0.42724,0 -0.88501,0.231934 -0.45166,0.22583 -0.88501,0.592041 l 0,5.090332 -1.14746,0 0,-6.817627 1.14746,0 0,0.756836 q 0.5127,-0.457764 1.01319,-0.701905 0.50049,-0.24414 1.05591,-0.24414 1.00708,0 1.5747,0.665283 0.56763,0.65918 0.56763,1.916504 l 0,4.425049 z" />
    <path
       id="path4997"
       style="fill:#4c7bcb;fill-opacity:1"
       d="m 243.18841,57.655163 0,-1.89209 q -0.40894,0.03662 -1.0376,0.10376 -0.62256,0.06103 -1.00708,0.177002 -0.45776,0.140381 -0.75684,0.433349 -0.29907,0.286866 -0.29907,0.805664 0,0.585938 0.32959,0.88501 0.32959,0.299072 0.96436,0.299072 0.54321,0 0.98266,-0.231933 0.43946,-0.238037 0.82398,-0.579834 z m 0,0.952148 q -0.14038,0.10376 -0.37842,0.292969 -0.23193,0.183105 -0.45166,0.292969 -0.30518,0.158691 -0.59204,0.24414 -0.28076,0.08545 -0.79346,0.08545 -0.42114,0 -0.79956,-0.158692 -0.37842,-0.158691 -0.66528,-0.445556 -0.27466,-0.280762 -0.43946,-0.689698 -0.16479,-0.415039 -0.16479,-0.872802 0,-0.708008 0.29907,-1.202393 0.29907,-0.500488 0.94605,-0.793457 0.57373,-0.262451 1.35498,-0.360107 0.78125,-0.10376 1.68457,-0.152588 l 0,-0.219727 q 0,-0.402832 -0.12207,-0.646973 -0.12207,-0.250244 -0.3418,-0.384521 -0.21973,-0.140381 -0.53711,-0.183106 -0.31738,-0.04883 -0.65307,-0.04883 -0.39673,0 -0.93384,0.122071 -0.53711,0.115966 -1.07422,0.341797 l -0.0671,0 0,-1.165772 q 0.31738,-0.09155 0.90942,-0.201416 0.59204,-0.109863 1.17188,-0.109863 0.7019,0 1.18408,0.109863 0.48218,0.109863 0.8667,0.396729 0.37231,0.280761 0.55542,0.726318 0.18311,0.445557 0.18311,1.086426 l 0,4.663086 -1.14136,0 0,-0.726319 z" />
    <path
       id="path4999"
       style="fill:#4c7bcb;fill-opacity:1"
       d="m 250.02435,57.484264 0,-3.741455 q -0.42725,-0.207519 -0.79346,-0.292968 -0.36011,-0.09155 -0.72022,-0.09155 -0.8728,0 -1.37329,0.640869 -0.50049,0.640869 -0.50049,1.837158 0,1.135254 0.37842,1.727295 0.38452,0.592041 1.23902,0.592041 0.44555,0 0.91552,-0.177002 0.47608,-0.177002 0.8545,-0.494385 z m -3.85743,2.941895 q 0.11597,0.04883 0.3418,0.128174 0.22583,0.08545 0.5127,0.158691 0.31738,0.07935 0.58593,0.128174 0.26856,0.04883 0.58594,0.04883 0.53101,0 0.89722,-0.140381 0.37231,-0.140381 0.57983,-0.390625 0.19531,-0.250244 0.27466,-0.579834 0.0794,-0.32959 0.0794,-0.750732 l 0,-0.598145 q -0.46387,0.402832 -0.90943,0.598145 -0.44556,0.189209 -1.11694,0.189209 -1.16577,0 -1.85547,-0.866699 -0.6897,-0.8667 -0.6897,-2.490235 0,-0.848388 0.23804,-1.501465 0.23804,-0.659179 0.64087,-1.116943 0.38452,-0.439453 0.90942,-0.67749 0.5249,-0.238037 1.08643,-0.238037 0.531,0 0.91553,0.128173 0.39062,0.122071 0.78125,0.354004 l 0.0671,-0.292968 1.08033,0 0,6.04248 q 0,1.733399 -0.75684,2.545166 -0.75684,0.811768 -2.31323,0.811768 -0.50049,0 -1.02539,-0.07935 -0.5188,-0.07935 -0.97046,-0.213623 l 0,-1.196289 0.061,0 z" />
    <path
       id="path5001"
       style="fill:#4c7bcb;fill-opacity:1"
       d="m 255.79217,59.492321 q -1.62964,0 -2.53296,-0.915527 -0.89722,-0.921631 -0.89722,-2.612305 0,-1.66626 0.8728,-2.648926 0.87281,-0.988769 2.28272,-0.988769 0.63477,0 1.12305,0.183105 0.48828,0.183106 0.85449,0.573731 0.36621,0.390625 0.56152,0.958252 0.19531,0.561523 0.19531,1.379394 l 0,0.622559 -4.72412,0 q 0,1.190185 0.59815,1.818847 0.59814,0.628662 1.65405,0.628662 0.37842,0 0.73853,-0.08545 0.36621,-0.08545 0.65918,-0.219726 0.31128,-0.140381 0.5249,-0.268555 0.21362,-0.134277 0.354,-0.250244 l 0.0671,0 0,1.251221 q -0.20142,0.07935 -0.50049,0.201416 -0.29907,0.115966 -0.53711,0.183105 -0.33569,0.09155 -0.61035,0.140381 -0.26855,0.04883 -0.68359,0.04883 z m 1.34277,-4.327393 q -0.0122,-0.463867 -0.10986,-0.79956 -0.0977,-0.335693 -0.28076,-0.567627 -0.20142,-0.256348 -0.5188,-0.390625 -0.31128,-0.134277 -0.77515,-0.134277 -0.45776,0 -0.78125,0.14038 -0.31738,0.134278 -0.57983,0.396729 -0.25635,0.268555 -0.39063,0.598144 -0.13428,0.323487 -0.1709,0.756836 l 3.60718,0 z" />
    <path
       id="path5003"
       style="fill:#4c7bcb;fill-opacity:1"
       d="m 267.16302,59.33363 0,-3.942871 q 0,-0.469971 -0.0366,-0.8667 -0.0366,-0.402832 -0.15259,-0.628662 -0.12207,-0.24414 -0.3479,-0.360107 -0.22583,-0.115967 -0.61035,-0.115967 -0.35401,0 -0.76294,0.219727 -0.40284,0.213623 -0.83618,0.622558 0.006,0.10376 0.0122,0.250244 0.0122,0.140381 0.0122,0.335694 l 0,4.486084 -1.14746,0 0,-3.942871 q 0,-0.469971 -0.0366,-0.8667 -0.0366,-0.402832 -0.15259,-0.628662 -0.12207,-0.24414 -0.3479,-0.360107 -0.22583,-0.115967 -0.61035,-0.115967 -0.37232,0 -0.78125,0.231934 -0.40894,0.231933 -0.79346,0.592041 l 0,5.090332 -1.14746,0 0,-6.817627 1.14746,0 0,0.756836 q 0.45166,-0.451661 0.89111,-0.695801 0.44556,-0.250244 0.97657,-0.250244 0.60424,0 1.06811,0.274658 0.46997,0.274658 0.71411,0.90332 0.5188,-0.579834 1.01319,-0.878906 0.49438,-0.299072 1.07422,-0.299072 0.43945,0 0.79956,0.140381 0.3601,0.134277 0.62866,0.439453 0.27466,0.311279 0.42114,0.775146 0.15259,0.463867 0.15259,1.165772 l 0,4.486084 -1.14746,0 z" />
    <path
       id="path5005"
       style="fill:#4c7bcb;fill-opacity:1"
       d="m 272.8576,59.492321 q -1.62964,0 -2.53296,-0.915527 -0.89722,-0.921631 -0.89722,-2.612305 0,-1.66626 0.8728,-2.648926 0.87281,-0.988769 2.28272,-0.988769 0.63476,0 1.12305,0.183105 0.48828,0.183106 0.85449,0.573731 0.36621,0.390625 0.56152,0.958252 0.19531,0.561523 0.19531,1.379394 l 0,0.622559 -4.72412,0 q 0,1.190185 0.59815,1.818847 0.59814,0.628662 1.65405,0.628662 0.37842,0 0.73853,-0.08545 0.36621,-0.08545 0.65918,-0.219726 0.31127,-0.140381 0.5249,-0.268555 0.21362,-0.134277 0.354,-0.250244 l 0.0671,0 0,1.251221 q -0.20142,0.07935 -0.50049,0.201416 -0.29907,0.115966 -0.53711,0.183105 -0.33569,0.09155 -0.61035,0.140381 -0.26855,0.04883 -0.68359,0.04883 z m 1.34277,-4.327393 q -0.0122,-0.463867 -0.10986,-0.79956 -0.0977,-0.335693 -0.28076,-0.567627 -0.20142,-0.256348 -0.5188,-0.390625 -0.31128,-0.134277 -0.77515,-0.134277 -0.45776,0 -0.78125,0.14038 -0.31738,0.134278 -0.57983,0.396729 -0.25635,0.268555 -0.39063,0.598144 -0.13428,0.323487 -0.1709,0.756836 l 3.60718,0 z" />
    <path
       id="path5007"
       style="fill:#4c7bcb;fill-opacity:1"
       d="m 281.84808,59.33363 -1.14747,0 0,-3.881836 q 0,-0.469971 -0.0488,-0.872803 -0.0427,-0.408936 -0.1709,-0.653076 -0.14038,-0.256348 -0.39063,-0.378418 -0.25024,-0.128174 -0.68359,-0.128174 -0.42725,0 -0.88501,0.231934 -0.45166,0.22583 -0.88501,0.592041 l 0,5.090332 -1.14746,0 0,-6.817627 1.14746,0 0,0.756836 q 0.5127,-0.457764 1.01318,-0.701905 0.50049,-0.24414 1.05591,-0.24414 1.00708,0 1.57471,0.665283 0.56763,0.65918 0.56763,1.916504 l 0,4.425049 z" />
    <path
       id="path5009"
       style="fill:#4c7bcb;fill-opacity:1"
       d="m 285.5346,59.467907 q -0.93994,0 -1.46484,-0.531006 -0.52491,-0.537109 -0.52491,-1.690674 l 0,-3.778076 -0.77514,0 0,-0.952148 0.77514,0 0,-1.959229 1.14746,0 0,1.959229 2.11182,0 0,0.952148 -2.11182,0 0,3.240967 q 0,0.518799 0.0183,0.79956 0.0183,0.280762 0.14039,0.524903 0.10376,0.213623 0.33569,0.323486 0.23193,0.10376 0.62866,0.10376 0.28076,0 0.54321,-0.07935 0.26246,-0.08545 0.37842,-0.140381 l 0.0671,0 0,1.031494 q -0.32349,0.09155 -0.65918,0.140381 -0.32959,0.05493 -0.61035,0.05493 z" />
  </g>
  <g
     id="text4138"
     style="font-style:normal;font-weight:normal;font-size:45px;line-height:125%;font-family:Tahoma;letter-spacing:-2px;word-spacing:0px;fill:#164f94;fill-opacity:1;stroke:none;stroke-width:1px;stroke-linecap:butt;stroke-linejoin:miter;stroke-opacity:1">
    <path
       id="path4936"
       style="font-style:normal;font-weight:normal;font-size:45px;line-height:125%;font-family:Tahoma;letter-spacing:-2px;word-spacing:0px;fill:#164f94;fill-opacity:1;stroke:none;stroke-width:1px;stroke-linecap:butt;stroke-linejoin:miter;stroke-opacity:1"
       d="m 125.16532,20.587177 -6.21826,24.543457 -3.82324,0 -5.99854,-18.918457 -5.95459,18.918457 -3.801267,0 -6.28418,-24.543457 4.306641,0 4.328616,19.006348 5.82275,-19.006348 3.40576,0 5.97657,19.006348 4.08691,-19.006348 4.15283,0 z" />
    <path
       id="path4938"
       style="font-style:normal;font-weight:normal;font-size:45px;line-height:125%;font-family:Tahoma;letter-spacing:-2px;word-spacing:0px;fill:#164f94;fill-opacity:1;stroke:none;stroke-width:1px;stroke-linecap:butt;stroke-linejoin:miter;stroke-opacity:1"
       d="m 137.46952,45.701923 q -5.8667,0 -9.11865,-3.295898 -3.22998,-3.317871 -3.22998,-9.404297 0,-5.998535 3.14209,-9.536133 3.14209,-3.55957 8.21777,-3.55957 2.28516,0 4.04297,0.65918 1.75781,0.659179 3.07617,2.065429 1.31836,1.40625 2.02149,3.449707 0.70312,2.021485 0.70312,4.965821 l 0,2.241211 -17.00683,0 q 0,4.284668 2.15332,6.547851 2.15332,2.263184 5.95459,2.263184 1.3623,0 2.65869,-0.307617 1.31836,-0.307618 2.37304,-0.791016 1.12061,-0.505371 1.88965,-0.966797 0.76904,-0.483398 1.27442,-0.900879 l 0.2417,0 0,4.504395 q -0.7251,0.285644 -1.80176,0.725097 -1.07666,0.417481 -1.9336,0.65918 -1.20849,0.32959 -2.19726,0.505371 -0.9668,0.175781 -2.46094,0.175781 z M 142.3035,30.12331 q -0.0439,-1.669922 -0.3955,-2.878418 -0.35157,-1.208496 -1.01075,-2.043457 -0.72509,-0.922851 -1.86767,-1.40625 -1.12061,-0.483398 -2.79053,-0.483398 -1.64795,0 -2.8125,0.505371 -1.14258,0.483398 -2.0874,1.428222 -0.92285,0.966797 -1.40625,2.153321 -0.4834,1.16455 -0.61523,2.724609 l 12.98583,0 z" />
    <path
       id="path4940"
       style="font-style:normal;font-weight:normal;font-size:45px;line-height:125%;font-family:Tahoma;letter-spacing:-2px;word-spacing:0px;fill:#164f94;fill-opacity:1;stroke:none;stroke-width:1px;stroke-linecap:butt;stroke-linejoin:miter;stroke-opacity:1"
       d="m 164.86893,32.782001 q 0,-4.394531 -1.34033,-6.657714 -1.34033,-2.285157 -4.30664,-2.285157 -1.69189,0 -3.42773,0.791016 -1.71387,0.791016 -3.12012,1.999512 l 0,14.0625 q 1.56006,0.769043 2.76856,1.098633 1.20849,0.307617 2.65869,0.307617 3.16406,0 4.96582,-2.241211 1.80175,-2.241211 1.80175,-7.075196 z m 4.2627,-0.329589 q 0,6.020507 -2.92236,9.689941 -2.92237,3.669434 -7.3169,3.669434 -1.99951,0 -3.42773,-0.505371 -1.40625,-0.483399 -2.79053,-1.31836 l -0.26367,1.142578 -3.86719,0 0,-34.189453 4.13086,0 0,12.216797 q 1.56006,-1.40625 3.38379,-2.329102 1.82373,-0.922851 4.13086,-0.922851 4.15283,0 6.54785,3.339844 2.39502,3.317871 2.39502,9.206543 z" />
    <path
       id="path4942"
       style="fill:#4c7bcb;fill-opacity:1"
       d="m 171.74589,45.130634 0,-32.717285 20.45654,0 0,3.867188 -16.10596,0 0,8.964843 15.00733,0 0,3.867188 -15.00733,0 0,12.150879 16.10596,0 0,3.867187 -20.45654,0 z" />
    <path
       id="path4944"
       style="fill:#4c7bcb;fill-opacity:1"
       d="m 213.62528,45.130634 -4.13086,0 0,-2.504883 q -0.96679,0.812989 -1.66992,1.340333 -0.70312,0.527343 -1.64795,0.966796 -0.8789,0.417481 -1.82373,0.637207 -0.94482,0.2417 -2.19726,0.2417 -1.99952,0 -3.71338,-0.834961 -1.6919,-0.834961 -2.87842,-2.438965 -1.2085,-1.625977 -1.86768,-3.999024 -0.65918,-2.395019 -0.65918,-5.493164 0,-3.22998 0.83496,-5.581054 0.83497,-2.373047 2.30713,-4.13086 1.34034,-1.604004 3.22998,-2.504883 1.91162,-0.922851 3.99903,-0.922851 1.8457,0 3.208,0.41748 1.36231,0.395508 2.87842,1.252442 l 0,-10.634766 4.13086,0 0,34.189453 z m -4.13086,-5.976562 0,-14.150391 q -1.53808,-0.74707 -2.76855,-1.032715 -1.2085,-0.285644 -2.63672,-0.285644 -3.18604,0 -4.98779,2.395019 -1.80176,2.373047 -1.80176,6.877442 0,4.328613 1.38428,6.635742 1.38427,2.285156 4.43847,2.285156 1.62598,0 3.27393,-0.725097 1.64795,-0.747071 3.09814,-1.999512 z" />
    <path
       id="path4946"
       style="fill:#4c7bcb;fill-opacity:1"
       d="m 221.82059,45.130634 -4.13085,0 0,-24.543457 4.13085,0 0,24.543457 z m 0.28565,-28.652343 -4.70215,0 0,-4.284668 4.70215,0 0,4.284668 z" />
    <path
       id="path4948"
       style="fill:#4c7bcb;fill-opacity:1"
       d="m 233.3997,45.614033 q -3.38379,0 -5.27344,-1.911621 -1.88965,-1.933594 -1.88965,-6.086426 l 0,-13.601074 -2.79053,0 0,-3.427735 2.79053,0 0,-7.053222 4.13086,0 0,7.053222 7.60254,0 0,3.427735 -7.60254,0 0,11.66748 q 0,1.867676 0.0659,2.878418 0.0659,1.010742 0.50537,1.889649 0.37353,0.769042 1.20849,1.16455 0.83497,0.373535 2.26319,0.373535 1.01074,0 1.95556,-0.285644 0.94483,-0.307617 1.36231,-0.505371 l 0.2417,0 0,3.713379 q -1.16455,0.32959 -2.37305,0.505371 -1.18652,0.197754 -2.19726,0.197754 z" />
    <path
       id="path4950"
       style="fill:#4c7bcb;fill-opacity:1"
       d="m 243.22099,45.130634 -4.13086,0 0,-24.543457 4.13086,0 0,24.543457 z m 0.28564,-28.652343 -4.70215,0 0,-4.284668 4.70215,0 0,4.284668 z" />
    <path
       id="path4952"
       style="fill:#4c7bcb;fill-opacity:1"
       d="m 267.5662,32.869892 q 0,6.196289 -2.98828,9.580078 -2.98828,3.361817 -7.9541,3.361817 -5.11963,0 -8.06397,-3.47168 -2.92236,-3.493652 -2.92236,-9.470215 0,-6.152344 3.01025,-9.558105 3.03223,-3.405762 7.97608,-3.405762 4.96582,0 7.9541,3.405762 2.98828,3.383789 2.98828,9.558105 z m -4.2627,0 q 0,-4.768066 -1.73583,-7.075195 -1.73584,-2.329102 -4.94385,-2.329102 -3.22998,0 -4.9878,2.329102 -1.73584,2.307129 -1.73584,7.075195 0,4.614258 1.73584,7.009277 1.75782,2.373047 4.9878,2.373047 3.18603,0 4.92187,-2.329101 1.75781,-2.351074 1.75781,-7.053223 z" />
    <path
       id="path4954"
       style="fill:#4c7bcb;fill-opacity:1"
       d="m 289.09892,45.130634 -4.13086,0 0,-13.974609 q 0,-1.691895 -0.17579,-3.14209 -0.1538,-1.472168 -0.61523,-2.351074 -0.50537,-0.922852 -1.40625,-1.362305 -0.90088,-0.461426 -2.46094,-0.461426 -1.53808,0 -3.18603,0.834961 -1.62598,0.812989 -3.18604,2.131348 l 0,18.325195 -4.13086,0 0,-24.543457 4.13086,0 0,2.72461 q 1.84571,-1.64795 3.64746,-2.526856 1.80176,-0.878906 3.80127,-0.878906 3.62549,0 5.66895,2.395019 2.04346,2.373047 2.04346,6.899415 l 0,15.930175 z" />
  </g>
  <circle
     r="37"
     cy="37.456432"
     cx="40.84964"
     id="path4154"
     style="fill:#164f94;fill-opacity:1" />
  <g
     id="text4150"
     style="font-style:normal;font-weight:normal;font-size:90px;line-height:125%;font-family:Tahoma;letter-spacing:0px;word-spacing:0px;fill:#ebebeb;fill-opacity:1;stroke:none;stroke-width:1px;stroke-linecap:butt;stroke-linejoin:miter;stroke-opacity:1">
    <path
       id="path5012"
       style="font-style:normal;font-weight:normal;font-size:90px;line-height:125%;font-family:Tahoma;letter-spacing:0px;word-spacing:0px;fill:#ebebeb;fill-opacity:1;stroke:none;stroke-width:1px;stroke-linecap:butt;stroke-linejoin:miter;stroke-opacity:1"
       d="m 48.102089,78.999992 q -11.733399,0 -18.237305,-6.591797 -6.459961,-6.635742 -6.459961,-18.808593 0,-11.997071 6.28418,-19.072266 6.28418,-7.119141 16.435547,-7.119141 4.570312,0 8.085937,1.31836 3.515625,1.318359 6.152344,4.130859 2.636719,2.8125 4.042969,6.899414 1.40625,4.042969 1.40625,9.931641 l 0,4.482422 -34.013672,0 q 0,8.569336 4.306641,13.095703 4.30664,4.526367 11.909179,4.526367 2.72461,0 5.317383,-0.615234 2.636719,-0.615235 4.746094,-1.582032 2.241211,-1.010742 3.779297,-1.933593 1.538086,-0.966797 2.548828,-1.801758 l 0.483398,0 0,9.008789 q -1.450195,0.571289 -3.603515,1.450195 -2.153321,0.834961 -3.867188,1.31836 -2.416992,0.659179 -4.394531,1.010742 -1.933594,0.351562 -4.921875,0.351562 z m 9.667969,-31.157226 q -0.08789,-3.339844 -0.791016,-5.756836 -0.703125,-2.416992 -2.021484,-4.086914 -1.450196,-1.845703 -3.735352,-2.8125 -2.241211,-0.966797 -5.581055,-0.966797 -3.295898,0 -5.625,1.010742 -2.285156,0.966797 -4.174804,2.856445 -1.845703,1.933594 -2.8125,4.306641 -0.966797,2.329102 -1.230469,5.449219 l 25.97168,0 z" />
  </g>
</svg>
