<?xml version="1.0" encoding="utf-8"?>
<!-- Generator: Adobe Illustrator 19.2.0, SVG Export Plug-In . SVG Version: 6.00 Build 0)  -->
<!DOCTYPE svg PUBLIC "-//W3C//DTD SVG 1.1//EN" "http://www.w3.org/Graphics/SVG/1.1/DTD/svg11.dtd">
<svg version="1.1"
	 id="svg2" xmlns:cc="http://creativecommons.org/ns#" xmlns:dc="http://purl.org/dc/elements/1.1/" xmlns:rdf="http://www.w3.org/1999/02/22-rdf-syntax-ns#" xmlns:svg="http://www.w3.org/2000/svg"
	 xmlns="http://www.w3.org/2000/svg" xmlns:xlink="http://www.w3.org/1999/xlink" x="0px" y="0px" viewBox="0 0 292 79"
	 style="enable-background:new 0 0 292 79;" xml:space="preserve">
<style type="text/css">
	.st0{fill:#164F94;}
	.st1{fill:#4C7BCB;}
</style>
<g id="text4213">
	<path id="path4957" class="st0" d="M104.3,55.9c0,1.1-0.3,2-0.8,2.7c-0.6,0.6-1.3,0.9-2.2,0.9c-0.9,0-1.7-0.3-2.2-1
		c-0.5-0.6-0.8-1.5-0.8-2.6c0-1.1,0.3-2,0.8-2.7c0.6-0.6,1.3-0.9,2.2-0.9c0.9,0,1.7,0.3,2.2,0.9C104,53.9,104.3,54.8,104.3,55.9z
		 M103.1,55.9c0-0.9-0.2-1.5-0.5-2c-0.3-0.4-0.8-0.6-1.4-0.6c-0.6,0-1.1,0.2-1.4,0.6c-0.3,0.4-0.5,1.1-0.5,2c0,0.9,0.2,1.5,0.5,1.9
		c0.3,0.4,0.8,0.7,1.4,0.7c0.6,0,1-0.2,1.4-0.6C102.9,57.5,103.1,56.8,103.1,55.9z"/>
	<path id="path4959" class="st0" d="M111.2,55.7c0,1.1-0.3,2-0.8,2.7c-0.5,0.7-1.2,1-2.1,1c-0.3,0-0.6,0-0.9-0.1
		c-0.3-0.1-0.5-0.2-0.8-0.4v2.9h-1.1v-9.3h1.1v0.7c0.3-0.3,0.6-0.5,0.9-0.6c0.3-0.2,0.7-0.3,1.1-0.3c0.8,0,1.4,0.3,1.8,0.9
		C110.9,53.9,111.2,54.7,111.2,55.7z M110,55.9c0-0.8-0.1-1.4-0.4-1.8c-0.2-0.4-0.7-0.6-1.2-0.6c-0.3,0-0.6,0.1-0.9,0.2
		c-0.3,0.1-0.6,0.3-0.9,0.6v3.9c0.3,0.1,0.6,0.2,0.8,0.3c0.2,0.1,0.5,0.1,0.7,0.1c0.6,0,1.1-0.2,1.4-0.7
		C109.8,57.3,110,56.7,110,55.9z"/>
	<path id="path4961" class="st0" d="M115.3,59.5c-1.1,0-1.9-0.3-2.5-0.9c-0.6-0.6-0.9-1.5-0.9-2.6c0-1.1,0.3-2,0.9-2.6
		c0.6-0.7,1.3-1,2.3-1c0.4,0,0.8,0.1,1.1,0.2s0.6,0.3,0.9,0.6c0.2,0.3,0.4,0.6,0.6,1c0.1,0.4,0.2,0.8,0.2,1.4V56H113
		c0,0.8,0.2,1.4,0.6,1.8c0.4,0.4,1,0.6,1.7,0.6c0.3,0,0.5,0,0.7-0.1c0.2-0.1,0.5-0.1,0.7-0.2c0.2-0.1,0.4-0.2,0.5-0.3
		c0.1-0.1,0.3-0.2,0.4-0.3h0.1v1.3c-0.1,0.1-0.3,0.1-0.5,0.2c-0.2,0.1-0.4,0.1-0.5,0.2c-0.2,0.1-0.4,0.1-0.6,0.1
		C115.8,59.5,115.6,59.5,115.3,59.5L115.3,59.5z M116.7,55.2c0-0.3,0-0.6-0.1-0.8c-0.1-0.2-0.2-0.4-0.3-0.6
		c-0.1-0.2-0.3-0.3-0.5-0.4c-0.2-0.1-0.5-0.1-0.8-0.1c-0.3,0-0.6,0-0.8,0.1c-0.2,0.1-0.4,0.2-0.6,0.4c-0.2,0.2-0.3,0.4-0.4,0.6
		c-0.1,0.2-0.1,0.5-0.2,0.8H116.7z"/>
	<path id="path4963" class="st0" d="M124.3,59.3h-1.1v-3.9c0-0.3,0-0.6,0-0.9c0-0.3-0.1-0.5-0.2-0.7c-0.1-0.2-0.2-0.3-0.4-0.4
		c-0.2-0.1-0.4-0.1-0.7-0.1c-0.3,0-0.6,0.1-0.9,0.2c-0.3,0.2-0.6,0.3-0.9,0.6v5.1h-1.1v-6.8h1.1v0.8c0.3-0.3,0.7-0.5,1-0.7
		c0.3-0.2,0.7-0.2,1.1-0.2c0.7,0,1.2,0.2,1.6,0.7c0.4,0.4,0.6,1.1,0.6,1.9L124.3,59.3L124.3,59.3z"/>
	<path id="path4965" class="st0" d="M131.7,59.5c-0.5,0-0.9-0.1-1.3-0.2c-0.4-0.1-0.7-0.3-1-0.4v-1.3h0.1c0.1,0.1,0.2,0.2,0.3,0.3
		c0.1,0.1,0.3,0.2,0.5,0.3c0.2,0.1,0.4,0.2,0.6,0.2c0.2,0.1,0.5,0.1,0.7,0.1c0.2,0,0.4,0,0.6-0.1c0.2,0,0.4-0.1,0.5-0.2
		c0.1-0.1,0.2-0.2,0.3-0.3c0.1-0.1,0.1-0.3,0.1-0.5c0-0.3-0.1-0.5-0.2-0.6c-0.1-0.1-0.4-0.3-0.8-0.3c-0.1,0-0.3-0.1-0.6-0.1
		c-0.2,0-0.5-0.1-0.7-0.2c-0.5-0.2-0.9-0.4-1.1-0.7c-0.2-0.3-0.4-0.7-0.4-1.1c0-0.6,0.2-1.1,0.7-1.5c0.5-0.4,1.1-0.6,1.8-0.6
		c0.4,0,0.8,0,1.1,0.1c0.4,0.1,0.7,0.2,1,0.4v1.2H134c-0.3-0.2-0.6-0.4-1-0.5c-0.4-0.1-0.7-0.2-1.1-0.2c-0.4,0-0.7,0.1-1,0.2
		c-0.3,0.2-0.4,0.4-0.4,0.7c0,0.3,0.1,0.5,0.2,0.6c0.2,0.1,0.4,0.3,0.7,0.3c0.2,0,0.4,0.1,0.6,0.1c0.2,0,0.4,0.1,0.7,0.1
		c0.5,0.1,0.9,0.3,1.1,0.6c0.3,0.3,0.4,0.7,0.4,1.2c0,0.3-0.1,0.6-0.2,0.8c-0.1,0.3-0.3,0.5-0.5,0.7c-0.2,0.2-0.5,0.4-0.8,0.5
		C132.5,59.4,132.1,59.5,131.7,59.5L131.7,59.5z"/>
	<path id="path4967" class="st0" d="M141,55.9c0,1.1-0.3,2-0.8,2.7c-0.6,0.6-1.3,0.9-2.2,0.9c-0.9,0-1.7-0.3-2.2-1
		c-0.5-0.6-0.8-1.5-0.8-2.6c0-1.1,0.3-2,0.8-2.7c0.6-0.6,1.3-0.9,2.2-0.9c0.9,0,1.7,0.3,2.2,0.9C140.8,53.9,141,54.8,141,55.9z
		 M139.8,55.9c0-0.9-0.2-1.5-0.5-2c-0.3-0.4-0.8-0.6-1.4-0.6c-0.6,0-1.1,0.2-1.4,0.6c-0.3,0.4-0.5,1.1-0.5,2c0,0.9,0.2,1.5,0.5,1.9
		c0.3,0.4,0.8,0.7,1.4,0.7c0.6,0,1-0.2,1.4-0.6C139.7,57.5,139.8,56.8,139.8,55.9L139.8,55.9z"/>
	<path id="path4969" class="st0" d="M147.5,59.3h-1.1v-0.8c-0.4,0.3-0.7,0.5-1,0.7c-0.3,0.2-0.7,0.2-1.1,0.2c-0.3,0-0.6,0-0.8-0.1
		c-0.3-0.1-0.5-0.3-0.7-0.5c-0.2-0.2-0.3-0.5-0.5-0.8c-0.1-0.3-0.2-0.7-0.2-1.2v-4.4h1.1v3.9c0,0.4,0,0.7,0,0.9
		c0,0.2,0.1,0.4,0.2,0.6c0.1,0.2,0.2,0.3,0.4,0.4c0.2,0.1,0.4,0.1,0.7,0.1c0.3,0,0.6-0.1,0.9-0.2s0.6-0.4,0.9-0.6v-5.1h1.1
		L147.5,59.3L147.5,59.3z"/>
	<path id="path4971" class="st0" d="M152.8,53.7L152.8,53.7c-0.1,0-0.2,0-0.3,0c-0.1,0-0.2,0-0.3,0c-0.3,0-0.6,0.1-0.9,0.2
		s-0.6,0.3-0.9,0.6v4.8h-1.1v-6.8h1.1v1c0.4-0.4,0.8-0.6,1.1-0.8c0.3-0.2,0.6-0.2,0.9-0.2c0.1,0,0.2,0,0.3,0c0.1,0,0.1,0,0.2,0
		L152.8,53.7L152.8,53.7z"/>
	<path id="path4973" class="st0" d="M156.4,59.5c-0.5,0-0.9-0.1-1.3-0.2c-0.4-0.1-0.7-0.4-1-0.7s-0.5-0.7-0.7-1.1
		c-0.2-0.4-0.2-1-0.2-1.6c0-0.6,0.1-1.1,0.2-1.6c0.2-0.4,0.4-0.8,0.6-1.1c0.3-0.3,0.6-0.5,1-0.7c0.4-0.2,0.8-0.2,1.3-0.2
		c0.4,0,0.7,0.1,1.1,0.2c0.3,0.1,0.7,0.2,0.9,0.4v1.3h-0.1c-0.1-0.1-0.2-0.1-0.3-0.2c-0.1-0.1-0.3-0.2-0.5-0.3
		c-0.2-0.1-0.3-0.2-0.6-0.2c-0.2-0.1-0.4-0.1-0.6-0.1c-0.6,0-1.1,0.2-1.4,0.7c-0.4,0.4-0.5,1.1-0.5,1.9c0,0.8,0.2,1.4,0.5,1.9
		c0.3,0.4,0.8,0.7,1.5,0.7c0.4,0,0.7-0.1,1.1-0.2s0.6-0.4,0.9-0.6h0.1v1.3c-0.1,0.1-0.3,0.1-0.4,0.2c-0.2,0.1-0.3,0.1-0.5,0.2
		c-0.2,0.1-0.4,0.1-0.5,0.1C156.9,59.5,156.7,59.5,156.4,59.5z"/>
	<path id="path4975" class="st0" d="M162.5,59.5c-1.1,0-1.9-0.3-2.5-0.9c-0.6-0.6-0.9-1.5-0.9-2.6c0-1.1,0.3-2,0.9-2.6
		c0.6-0.7,1.3-1,2.3-1c0.4,0,0.8,0.1,1.1,0.2s0.6,0.3,0.9,0.6c0.2,0.3,0.4,0.6,0.6,1c0.1,0.4,0.2,0.8,0.2,1.4V56h-4.7
		c0,0.8,0.2,1.4,0.6,1.8c0.4,0.4,1,0.6,1.7,0.6c0.3,0,0.5,0,0.7-0.1c0.2-0.1,0.5-0.1,0.7-0.2c0.2-0.1,0.4-0.2,0.5-0.3
		c0.1-0.1,0.3-0.2,0.4-0.3h0.1v1.3c-0.1,0.1-0.3,0.1-0.5,0.2c-0.2,0.1-0.4,0.1-0.5,0.2c-0.2,0.1-0.4,0.1-0.6,0.1
		C163,59.5,162.7,59.5,162.5,59.5L162.5,59.5z M163.8,55.2c0-0.3,0-0.6-0.1-0.8c-0.1-0.2-0.2-0.4-0.3-0.6c-0.1-0.2-0.3-0.3-0.5-0.4
		c-0.2-0.1-0.5-0.1-0.8-0.1c-0.3,0-0.6,0-0.8,0.1c-0.2,0.1-0.4,0.2-0.6,0.4c-0.2,0.2-0.3,0.4-0.4,0.6c-0.1,0.2-0.1,0.5-0.2,0.8
		H163.8z"/>
	<path id="path4977" class="st1" d="M172.7,59.5c-0.5,0-0.9-0.1-1.3-0.2c-0.4-0.1-0.7-0.4-1-0.7s-0.5-0.7-0.7-1.1
		c-0.2-0.4-0.2-1-0.2-1.6c0-0.6,0.1-1.1,0.2-1.6c0.2-0.4,0.4-0.8,0.6-1.1c0.3-0.3,0.6-0.5,1-0.7c0.4-0.2,0.8-0.2,1.3-0.2
		c0.4,0,0.7,0.1,1.1,0.2c0.3,0.1,0.7,0.2,0.9,0.4v1.3h-0.1c-0.1-0.1-0.2-0.1-0.3-0.2c-0.1-0.1-0.3-0.2-0.5-0.3
		c-0.2-0.1-0.3-0.2-0.6-0.2c-0.2-0.1-0.4-0.1-0.6-0.1c-0.6,0-1.1,0.2-1.4,0.7c-0.4,0.4-0.5,1.1-0.5,1.9c0,0.8,0.2,1.4,0.5,1.9
		c0.3,0.4,0.8,0.7,1.5,0.7c0.4,0,0.7-0.1,1.1-0.2s0.6-0.4,0.9-0.6h0.1v1.3c-0.1,0.1-0.3,0.1-0.4,0.2c-0.2,0.1-0.3,0.1-0.5,0.2
		c-0.2,0.1-0.4,0.1-0.5,0.1C173.1,59.5,172.9,59.5,172.7,59.5z"/>
	<path id="path4979" class="st1" d="M181.4,55.9c0,1.1-0.3,2-0.8,2.7c-0.6,0.6-1.3,0.9-2.2,0.9c-0.9,0-1.7-0.3-2.2-1
		c-0.5-0.6-0.8-1.5-0.8-2.6c0-1.1,0.3-2,0.8-2.7c0.6-0.6,1.3-0.9,2.2-0.9c0.9,0,1.7,0.3,2.2,0.9C181.1,53.9,181.4,54.8,181.4,55.9
		L181.4,55.9z M180.2,55.9c0-0.9-0.2-1.5-0.5-2c-0.3-0.4-0.8-0.6-1.4-0.6c-0.6,0-1.1,0.2-1.4,0.6c-0.3,0.4-0.5,1.1-0.5,2
		c0,0.9,0.2,1.5,0.5,1.9c0.3,0.4,0.8,0.7,1.4,0.7c0.6,0,1-0.2,1.4-0.6C180,57.5,180.2,56.8,180.2,55.9z"/>
	<path id="path4981" class="st1" d="M187.9,59.3h-1.1v-3.9c0-0.3,0-0.6,0-0.9c0-0.3-0.1-0.5-0.2-0.7c-0.1-0.2-0.2-0.3-0.4-0.4
		c-0.2-0.1-0.4-0.1-0.7-0.1c-0.3,0-0.6,0.1-0.9,0.2c-0.3,0.2-0.6,0.3-0.9,0.6v5.1h-1.1v-6.8h1.1v0.8c0.3-0.3,0.7-0.5,1-0.7
		c0.3-0.2,0.7-0.2,1.1-0.2c0.7,0,1.2,0.2,1.6,0.7c0.4,0.4,0.6,1.1,0.6,1.9L187.9,59.3L187.9,59.3z"/>
	<path id="path4983" class="st1" d="M191.6,59.5c-0.6,0-1.1-0.2-1.5-0.5c-0.3-0.4-0.5-0.9-0.5-1.7v-3.8h-0.8v-1h0.8v-2h1.1v2h2.1v1
		h-2.1v3.2c0,0.3,0,0.6,0,0.8c0,0.2,0.1,0.4,0.1,0.5c0.1,0.1,0.2,0.3,0.3,0.3c0.2,0.1,0.4,0.1,0.6,0.1c0.2,0,0.4,0,0.5-0.1
		c0.2-0.1,0.3-0.1,0.4-0.1h0.1v1c-0.2,0.1-0.4,0.1-0.7,0.1C192,59.4,191.8,59.5,191.6,59.5L191.6,59.5z"/>
	<path id="path4985" class="st1" d="M196.7,59.5c-1.1,0-1.9-0.3-2.5-0.9c-0.6-0.6-0.9-1.5-0.9-2.6c0-1.1,0.3-2,0.9-2.6
		c0.6-0.7,1.3-1,2.3-1c0.4,0,0.8,0.1,1.1,0.2c0.3,0.1,0.6,0.3,0.9,0.6c0.2,0.3,0.4,0.6,0.6,1c0.1,0.4,0.2,0.8,0.2,1.4V56h-4.7
		c0,0.8,0.2,1.4,0.6,1.8c0.4,0.4,1,0.6,1.7,0.6c0.3,0,0.5,0,0.7-0.1c0.2-0.1,0.5-0.1,0.7-0.2c0.2-0.1,0.4-0.2,0.5-0.3
		c0.1-0.1,0.3-0.2,0.4-0.3h0.1v1.3c-0.1,0.1-0.3,0.1-0.5,0.2c-0.2,0.1-0.4,0.1-0.5,0.2c-0.2,0.1-0.4,0.1-0.6,0.1
		C197.2,59.5,197,59.5,196.7,59.5L196.7,59.5z M198,55.2c0-0.3,0-0.6-0.1-0.8c-0.1-0.2-0.2-0.4-0.3-0.6c-0.1-0.2-0.3-0.3-0.5-0.4
		c-0.2-0.1-0.5-0.1-0.8-0.1c-0.3,0-0.6,0-0.8,0.1c-0.2,0.1-0.4,0.2-0.6,0.4c-0.2,0.2-0.3,0.4-0.4,0.6c-0.1,0.2-0.1,0.5-0.2,0.8H198z
		"/>
	<path id="path4987" class="st1" d="M205.7,59.3h-1.1v-3.9c0-0.3,0-0.6,0-0.9c0-0.3-0.1-0.5-0.2-0.7c-0.1-0.2-0.2-0.3-0.4-0.4
		c-0.2-0.1-0.4-0.1-0.7-0.1c-0.3,0-0.6,0.1-0.9,0.2c-0.3,0.2-0.6,0.3-0.9,0.6v5.1h-1.1v-6.8h1.1v0.8c0.3-0.3,0.7-0.5,1-0.7
		c0.3-0.2,0.7-0.2,1.1-0.2c0.7,0,1.2,0.2,1.6,0.7c0.4,0.4,0.6,1.1,0.6,1.9L205.7,59.3L205.7,59.3z"/>
	<path id="path4989" class="st1" d="M209.4,59.5c-0.6,0-1.1-0.2-1.5-0.5c-0.3-0.4-0.5-0.9-0.5-1.7v-3.8h-0.8v-1h0.8v-2h1.1v2h2.1v1
		h-2.1v3.2c0,0.3,0,0.6,0,0.8c0,0.2,0.1,0.4,0.1,0.5c0.1,0.1,0.2,0.3,0.3,0.3c0.2,0.1,0.4,0.1,0.6,0.1c0.2,0,0.4,0,0.5-0.1
		c0.2-0.1,0.3-0.1,0.4-0.1h0.1v1c-0.2,0.1-0.4,0.1-0.7,0.1C209.8,59.4,209.5,59.5,209.4,59.5L209.4,59.5z"/>
	<path id="path4991" class="st1" d="M223.1,59.3v-3.9c0-0.3,0-0.6,0-0.9c0-0.3-0.1-0.5-0.2-0.6c-0.1-0.2-0.2-0.3-0.3-0.4
		c-0.2-0.1-0.4-0.1-0.6-0.1c-0.2,0-0.5,0.1-0.8,0.2c-0.3,0.1-0.5,0.3-0.8,0.6c0,0.1,0,0.2,0,0.3c0,0.1,0,0.2,0,0.3v4.5h-1.1v-3.9
		c0-0.3,0-0.6,0-0.9c0-0.3-0.1-0.5-0.2-0.6c-0.1-0.2-0.2-0.3-0.3-0.4c-0.2-0.1-0.4-0.1-0.6-0.1c-0.2,0-0.5,0.1-0.8,0.2
		c-0.3,0.2-0.5,0.4-0.8,0.6v5.1h-1.1v-6.8h1.1v0.8c0.3-0.3,0.6-0.5,0.9-0.7c0.3-0.2,0.6-0.3,1-0.3c0.4,0,0.8,0.1,1.1,0.3
		c0.3,0.2,0.6,0.5,0.7,0.9c0.3-0.4,0.7-0.7,1-0.9c0.3-0.2,0.7-0.3,1.1-0.3c0.3,0,0.6,0,0.8,0.1c0.2,0.1,0.4,0.2,0.6,0.4
		c0.2,0.2,0.3,0.5,0.4,0.8c0.1,0.3,0.2,0.7,0.2,1.2v4.5H223.1L223.1,59.3z"/>
	<path id="path4993" class="st1" d="M229.7,57.7v-1.9c-0.3,0-0.6,0.1-1,0.1c-0.4,0-0.8,0.1-1,0.2c-0.3,0.1-0.6,0.2-0.8,0.4
		c-0.2,0.2-0.3,0.5-0.3,0.8c0,0.4,0.1,0.7,0.3,0.9c0.2,0.2,0.5,0.3,1,0.3c0.4,0,0.7-0.1,1-0.2C229.1,58.1,229.4,57.9,229.7,57.7z
		 M229.7,58.6c-0.1,0.1-0.2,0.2-0.4,0.3c-0.2,0.1-0.3,0.2-0.5,0.3c-0.2,0.1-0.4,0.2-0.6,0.2c-0.2,0.1-0.5,0.1-0.8,0.1
		c-0.3,0-0.5-0.1-0.8-0.2c-0.3-0.1-0.5-0.3-0.7-0.4c-0.2-0.2-0.3-0.4-0.4-0.7c-0.1-0.3-0.2-0.6-0.2-0.9c0-0.5,0.1-0.9,0.3-1.2
		c0.2-0.3,0.5-0.6,0.9-0.8c0.4-0.2,0.8-0.3,1.4-0.4c0.5-0.1,1.1-0.1,1.7-0.2v-0.2c0-0.3,0-0.5-0.1-0.6c-0.1-0.2-0.2-0.3-0.3-0.4
		c-0.1-0.1-0.3-0.2-0.5-0.2c-0.2,0-0.4,0-0.7,0c-0.3,0-0.6,0-0.9,0.1c-0.4,0.1-0.7,0.2-1.1,0.3h-0.1v-1.2c0.2-0.1,0.5-0.1,0.9-0.2
		c0.4-0.1,0.8-0.1,1.2-0.1c0.5,0,0.9,0,1.2,0.1s0.6,0.2,0.9,0.4c0.2,0.2,0.4,0.4,0.6,0.7c0.1,0.3,0.2,0.7,0.2,1.1v4.7h-1.1
		L229.7,58.6L229.7,58.6z"/>
	<path id="path4995" class="st1" d="M237.8,59.3h-1.1v-3.9c0-0.3,0-0.6,0-0.9c0-0.3-0.1-0.5-0.2-0.7c-0.1-0.2-0.2-0.3-0.4-0.4
		c-0.2-0.1-0.4-0.1-0.7-0.1c-0.3,0-0.6,0.1-0.9,0.2c-0.3,0.2-0.6,0.3-0.9,0.6v5.1h-1.1v-6.8h1.1v0.8c0.3-0.3,0.7-0.5,1-0.7
		c0.3-0.2,0.7-0.2,1.1-0.2c0.7,0,1.2,0.2,1.6,0.7c0.4,0.4,0.6,1.1,0.6,1.9L237.8,59.3L237.8,59.3z"/>
	<path id="path4997" class="st1" d="M243.2,57.7v-1.9c-0.3,0-0.6,0.1-1,0.1c-0.4,0-0.8,0.1-1,0.2c-0.3,0.1-0.6,0.2-0.8,0.4
		c-0.2,0.2-0.3,0.5-0.3,0.8c0,0.4,0.1,0.7,0.3,0.9c0.2,0.2,0.5,0.3,1,0.3c0.4,0,0.7-0.1,1-0.2C242.7,58.1,242.9,57.9,243.2,57.7z
		 M243.2,58.6c-0.1,0.1-0.2,0.2-0.4,0.3c-0.2,0.1-0.3,0.2-0.5,0.3c-0.2,0.1-0.4,0.2-0.6,0.2c-0.2,0.1-0.5,0.1-0.8,0.1
		c-0.3,0-0.5-0.1-0.8-0.2c-0.3-0.1-0.5-0.3-0.7-0.4c-0.2-0.2-0.3-0.4-0.4-0.7c-0.1-0.3-0.2-0.6-0.2-0.9c0-0.5,0.1-0.9,0.3-1.2
		c0.2-0.3,0.5-0.6,0.9-0.8c0.4-0.2,0.8-0.3,1.4-0.4c0.5-0.1,1.1-0.1,1.7-0.2v-0.2c0-0.3,0-0.5-0.1-0.6c-0.1-0.2-0.2-0.3-0.3-0.4
		c-0.1-0.1-0.3-0.2-0.5-0.2c-0.2,0-0.4,0-0.7,0c-0.3,0-0.6,0-0.9,0.1c-0.4,0.1-0.7,0.2-1.1,0.3h-0.1v-1.2c0.2-0.1,0.5-0.1,0.9-0.2
		c0.4-0.1,0.8-0.1,1.2-0.1c0.5,0,0.9,0,1.2,0.1c0.3,0.1,0.6,0.2,0.9,0.4c0.2,0.2,0.4,0.4,0.6,0.7c0.1,0.3,0.2,0.7,0.2,1.1v4.7h-1.1
		L243.2,58.6L243.2,58.6z"/>
	<path id="path4999" class="st1" d="M250,57.5v-3.7c-0.3-0.1-0.5-0.2-0.8-0.3c-0.2-0.1-0.5-0.1-0.7-0.1c-0.6,0-1,0.2-1.4,0.6
		s-0.5,1-0.5,1.8c0,0.8,0.1,1.3,0.4,1.7c0.3,0.4,0.7,0.6,1.2,0.6c0.3,0,0.6-0.1,0.9-0.2C249.5,57.9,249.8,57.7,250,57.5L250,57.5z
		 M246.2,60.4c0.1,0,0.2,0.1,0.3,0.1c0.2,0.1,0.3,0.1,0.5,0.2c0.2,0.1,0.4,0.1,0.6,0.1c0.2,0,0.4,0,0.6,0c0.4,0,0.7,0,0.9-0.1
		c0.2-0.1,0.4-0.2,0.6-0.4c0.1-0.2,0.2-0.4,0.3-0.6c0.1-0.2,0.1-0.5,0.1-0.8v-0.6c-0.3,0.3-0.6,0.5-0.9,0.6
		c-0.3,0.1-0.7,0.2-1.1,0.2c-0.8,0-1.4-0.3-1.9-0.9c-0.5-0.6-0.7-1.4-0.7-2.5c0-0.6,0.1-1.1,0.2-1.5c0.2-0.4,0.4-0.8,0.6-1.1
		c0.3-0.3,0.6-0.5,0.9-0.7c0.3-0.2,0.7-0.2,1.1-0.2c0.4,0,0.7,0,0.9,0.1c0.3,0.1,0.5,0.2,0.8,0.4l0.1-0.3h1.1v6c0,1.2-0.3,2-0.8,2.5
		c-0.5,0.5-1.3,0.8-2.3,0.8c-0.3,0-0.7,0-1-0.1c-0.3-0.1-0.7-0.1-1-0.2L246.2,60.4C246.1,60.4,246.2,60.4,246.2,60.4z"/>
	<path id="path5001" class="st1" d="M255.8,59.5c-1.1,0-1.9-0.3-2.5-0.9c-0.6-0.6-0.9-1.5-0.9-2.6c0-1.1,0.3-2,0.9-2.6
		c0.6-0.7,1.3-1,2.3-1c0.4,0,0.8,0.1,1.1,0.2s0.6,0.3,0.9,0.6c0.2,0.3,0.4,0.6,0.6,1c0.1,0.4,0.2,0.8,0.2,1.4V56h-4.7
		c0,0.8,0.2,1.4,0.6,1.8c0.4,0.4,1,0.6,1.7,0.6c0.3,0,0.5,0,0.7-0.1c0.2-0.1,0.5-0.1,0.7-0.2c0.2-0.1,0.4-0.2,0.5-0.3
		c0.1-0.1,0.3-0.2,0.4-0.3h0.1v1.3c-0.1,0.1-0.3,0.1-0.5,0.2c-0.2,0.1-0.4,0.1-0.5,0.2c-0.2,0.1-0.4,0.1-0.6,0.1
		C256.3,59.5,256.1,59.5,255.8,59.5L255.8,59.5z M257.1,55.2c0-0.3,0-0.6-0.1-0.8c-0.1-0.2-0.2-0.4-0.3-0.6
		c-0.1-0.2-0.3-0.3-0.5-0.4c-0.2-0.1-0.5-0.1-0.8-0.1c-0.3,0-0.6,0-0.8,0.1c-0.2,0.1-0.4,0.2-0.6,0.4c-0.2,0.2-0.3,0.4-0.4,0.6
		c-0.1,0.2-0.1,0.5-0.2,0.8H257.1z"/>
	<path id="path5003" class="st1" d="M267.2,59.3v-3.9c0-0.3,0-0.6,0-0.9c0-0.3-0.1-0.5-0.2-0.6c-0.1-0.2-0.2-0.3-0.3-0.4
		c-0.2-0.1-0.4-0.1-0.6-0.1c-0.2,0-0.5,0.1-0.8,0.2c-0.3,0.1-0.5,0.3-0.8,0.6c0,0.1,0,0.2,0,0.3c0,0.1,0,0.2,0,0.3v4.5h-1.1v-3.9
		c0-0.3,0-0.6,0-0.9c0-0.3-0.1-0.5-0.2-0.6c-0.1-0.2-0.2-0.3-0.3-0.4c-0.2-0.1-0.4-0.1-0.6-0.1c-0.2,0-0.5,0.1-0.8,0.2
		c-0.3,0.2-0.5,0.4-0.8,0.6v5.1h-1.1v-6.8h1.1v0.8c0.3-0.3,0.6-0.5,0.9-0.7c0.3-0.2,0.6-0.3,1-0.3c0.4,0,0.8,0.1,1.1,0.3
		c0.3,0.2,0.6,0.5,0.7,0.9c0.3-0.4,0.7-0.7,1-0.9c0.3-0.2,0.7-0.3,1.1-0.3c0.3,0,0.6,0,0.8,0.1c0.2,0.1,0.4,0.2,0.6,0.4
		c0.2,0.2,0.3,0.5,0.4,0.8c0.1,0.3,0.2,0.7,0.2,1.2v4.5H267.2L267.2,59.3z"/>
	<path id="path5005" class="st1" d="M272.9,59.5c-1.1,0-1.9-0.3-2.5-0.9c-0.6-0.6-0.9-1.5-0.9-2.6c0-1.1,0.3-2,0.9-2.6
		c0.6-0.7,1.3-1,2.3-1c0.4,0,0.8,0.1,1.1,0.2s0.6,0.3,0.9,0.6c0.2,0.3,0.4,0.6,0.6,1c0.1,0.4,0.2,0.8,0.2,1.4V56h-4.7
		c0,0.8,0.2,1.4,0.6,1.8c0.4,0.4,1,0.6,1.7,0.6c0.3,0,0.5,0,0.7-0.1c0.2-0.1,0.5-0.1,0.7-0.2c0.2-0.1,0.4-0.2,0.5-0.3
		c0.1-0.1,0.3-0.2,0.4-0.3h0.1v1.3c-0.1,0.1-0.3,0.1-0.5,0.2c-0.2,0.1-0.4,0.1-0.5,0.2c-0.2,0.1-0.4,0.1-0.6,0.1
		C273.4,59.5,273.1,59.5,272.9,59.5L272.9,59.5z M274.2,55.2c0-0.3,0-0.6-0.1-0.8c-0.1-0.2-0.2-0.4-0.3-0.6
		c-0.1-0.2-0.3-0.3-0.5-0.4c-0.2-0.1-0.5-0.1-0.8-0.1c-0.3,0-0.6,0-0.8,0.1c-0.2,0.1-0.4,0.2-0.6,0.4c-0.2,0.2-0.3,0.4-0.4,0.6
		c-0.1,0.2-0.1,0.5-0.2,0.8H274.2z"/>
	<path id="path5007" class="st1" d="M281.8,59.3h-1.1v-3.9c0-0.3,0-0.6,0-0.9c0-0.3-0.1-0.5-0.2-0.7c-0.1-0.2-0.2-0.3-0.4-0.4
		c-0.2-0.1-0.4-0.1-0.7-0.1c-0.3,0-0.6,0.1-0.9,0.2c-0.3,0.2-0.6,0.3-0.9,0.6v5.1h-1.1v-6.8h1.1v0.8c0.3-0.3,0.7-0.5,1-0.7
		c0.3-0.2,0.7-0.2,1.1-0.2c0.7,0,1.2,0.2,1.6,0.7c0.4,0.4,0.6,1.1,0.6,1.9L281.8,59.3L281.8,59.3z"/>
	<path id="path5009" class="st1" d="M285.5,59.5c-0.6,0-1.1-0.2-1.5-0.5c-0.3-0.4-0.5-0.9-0.5-1.7v-3.8h-0.8v-1h0.8v-2h1.1v2h2.1v1
		h-2.1v3.2c0,0.3,0,0.6,0,0.8c0,0.2,0.1,0.4,0.1,0.5c0.1,0.1,0.2,0.3,0.3,0.3c0.2,0.1,0.4,0.1,0.6,0.1c0.2,0,0.4,0,0.5-0.1
		c0.2-0.1,0.3-0.1,0.4-0.1h0.1v1c-0.2,0.1-0.4,0.1-0.7,0.1C285.9,59.4,285.7,59.5,285.5,59.5L285.5,59.5z"/>
</g>
<g id="text4138">
	<path id="path4936" class="st0" d="M125.2,20.6l-6.2,24.5h-3.8l-6-18.9l-6,18.9h-3.8l-6.3-24.5h4.3l4.3,19l5.8-19h3.4l6,19l4.1-19
		C121,20.6,125.2,20.6,125.2,20.6z"/>
	<path id="path4938" class="st0" d="M137.5,45.7c-3.9,0-7-1.1-9.1-3.3c-2.2-2.2-3.2-5.3-3.2-9.4c0-4,1-7.2,3.1-9.5
		c2.1-2.4,4.8-3.6,8.2-3.6c1.5,0,2.9,0.2,4,0.7s2.2,1.1,3.1,2.1c0.9,0.9,1.6,2.1,2,3.4c0.5,1.3,0.7,3,0.7,5v2.2h-17
		c0,2.9,0.7,5,2.2,6.5s3.4,2.3,6,2.3c0.9,0,1.8-0.1,2.7-0.3c0.9-0.2,1.7-0.5,2.4-0.8c0.7-0.3,1.4-0.7,1.9-1c0.5-0.3,0.9-0.6,1.3-0.9
		h0.2v4.5c-0.5,0.2-1.1,0.4-1.8,0.7c-0.7,0.3-1.4,0.5-1.9,0.7c-0.8,0.2-1.5,0.4-2.2,0.5C139.3,45.6,138.5,45.7,137.5,45.7z
		 M142.3,30.1c0-1.1-0.2-2.1-0.4-2.9c-0.2-0.8-0.6-1.5-1-2c-0.5-0.6-1.1-1.1-1.9-1.4c-0.7-0.3-1.7-0.5-2.8-0.5c-1.1,0-2,0.2-2.8,0.5
		c-0.8,0.3-1.5,0.8-2.1,1.4c-0.6,0.6-1.1,1.4-1.4,2.2c-0.3,0.8-0.5,1.7-0.6,2.7H142.3L142.3,30.1z"/>
	<path id="path4940" class="st0" d="M164.9,32.8c0-2.9-0.4-5.1-1.3-6.7c-0.9-1.5-2.3-2.3-4.3-2.3c-1.1,0-2.3,0.3-3.4,0.8
		c-1.1,0.5-2.2,1.2-3.1,2v14.1c1,0.5,2,0.9,2.8,1.1c0.8,0.2,1.7,0.3,2.7,0.3c2.1,0,3.8-0.7,5-2.2C164.3,38.4,164.9,36,164.9,32.8
		L164.9,32.8z M169.1,32.5c0,4-1,7.2-2.9,9.7s-4.4,3.7-7.3,3.7c-1.3,0-2.5-0.2-3.4-0.5c-0.9-0.3-1.9-0.8-2.8-1.3l-0.3,1.1h-3.9V10.9
		h4.1v12.2c1-0.9,2.2-1.7,3.4-2.3c1.2-0.6,2.6-0.9,4.1-0.9c2.8,0,5,1.1,6.5,3.3C168.3,25.5,169.1,28.5,169.1,32.5z"/>
	<path id="path4942" class="st1" d="M171.7,45.1V12.4h20.5v3.9h-16.1v9h15v3.9h-15v12.2h16.1v3.9H171.7z"/>
	<path id="path4944" class="st1" d="M213.6,45.1h-4.1v-2.5c-0.6,0.5-1.2,1-1.7,1.3c-0.5,0.4-1,0.7-1.6,1c-0.6,0.3-1.2,0.5-1.8,0.6
		c-0.6,0.2-1.4,0.2-2.2,0.2c-1.3,0-2.6-0.3-3.7-0.8c-1.1-0.6-2.1-1.4-2.9-2.4c-0.8-1.1-1.4-2.4-1.9-4c-0.4-1.6-0.7-3.4-0.7-5.5
		c0-2.2,0.3-4,0.8-5.6c0.6-1.6,1.3-3,2.3-4.1c0.9-1.1,2-1.9,3.2-2.5c1.3-0.6,2.6-0.9,4-0.9c1.2,0,2.3,0.1,3.2,0.4
		c0.9,0.3,1.9,0.7,2.9,1.3V10.9h4.1L213.6,45.1L213.6,45.1z M209.5,39.2V25c-1-0.5-1.9-0.8-2.8-1c-0.8-0.2-1.7-0.3-2.6-0.3
		c-2.1,0-3.8,0.8-5,2.4c-1.2,1.6-1.8,3.9-1.8,6.9c0,2.9,0.5,5.1,1.4,6.6c0.9,1.5,2.4,2.3,4.4,2.3c1.1,0,2.2-0.2,3.3-0.7
		C207.5,40.7,208.5,40,209.5,39.2z"/>
	<path id="path4946" class="st1" d="M221.8,45.1h-4.1V20.6h4.1V45.1z M222.1,16.5h-4.7v-4.3h4.7V16.5z"/>
	<path id="path4948" class="st1" d="M233.4,45.6c-2.3,0-4-0.6-5.3-1.9c-1.3-1.3-1.9-3.3-1.9-6.1V24h-2.8v-3.4h2.8v-7.1h4.1v7.1h7.6
		V24h-7.6v11.7c0,1.2,0,2.2,0.1,2.9s0.2,1.3,0.5,1.9c0.2,0.5,0.7,0.9,1.2,1.2c0.6,0.2,1.3,0.4,2.3,0.4c0.7,0,1.3-0.1,2-0.3
		c0.6-0.2,1.1-0.4,1.4-0.5h0.2v3.7c-0.8,0.2-1.6,0.4-2.4,0.5C234.8,45.5,234.1,45.6,233.4,45.6L233.4,45.6z"/>
	<path id="path4950" class="st1" d="M243.2,45.1h-4.1V20.6h4.1V45.1z M243.5,16.5h-4.7v-4.3h4.7V16.5z"/>
	<path id="path4952" class="st1" d="M267.6,32.9c0,4.1-1,7.3-3,9.6c-2,2.2-4.6,3.4-8,3.4c-3.4,0-6.1-1.2-8.1-3.5
		c-1.9-2.3-2.9-5.5-2.9-9.5c0-4.1,1-7.3,3-9.6c2-2.3,4.7-3.4,8-3.4c3.3,0,6,1.1,8,3.4C266.6,25.6,267.6,28.8,267.6,32.9z
		 M263.3,32.9c0-3.2-0.6-5.5-1.7-7.1c-1.2-1.6-2.8-2.3-4.9-2.3c-2.2,0-3.8,0.8-5,2.3c-1.2,1.5-1.7,3.9-1.7,7.1c0,3.1,0.6,5.4,1.7,7
		c1.2,1.6,2.8,2.4,5,2.4c2.1,0,3.8-0.8,4.9-2.3C262.7,38.4,263.3,36,263.3,32.9z"/>
	<path id="path4954" class="st1" d="M289.1,45.1H285v-14c0-1.1-0.1-2.2-0.2-3.1c-0.1-1-0.3-1.8-0.6-2.4c-0.3-0.6-0.8-1.1-1.4-1.4
		c-0.6-0.3-1.4-0.5-2.5-0.5c-1,0-2.1,0.3-3.2,0.8c-1.1,0.5-2.1,1.3-3.2,2.1v18.3h-4.1V20.6h4.1v2.7c1.2-1.1,2.4-1.9,3.6-2.5
		c1.2-0.6,2.5-0.9,3.8-0.9c2.4,0,4.3,0.8,5.7,2.4c1.4,1.6,2,3.9,2,6.9V45.1z"/>
</g>
<g>
	<path class="st0" d="M40.8,0.5c-20.4,0-37,16.6-37,37c0,16.8,11.3,31,26.6,35.5c-0.2-0.2-0.4-0.4-0.6-0.6
		c-4.3-4.4-6.5-10.7-6.5-18.8c0-8,2.1-14.4,6.3-19.1c4.2-4.7,9.7-7.1,16.4-7.1c3,0,5.7,0.4,8.1,1.3s4.4,2.3,6.2,4.1s3.1,4.2,4,6.9
		c0.9,2.7,1.4,6,1.4,9.9v4.5h-34c0,5.7,1.4,10.1,4.3,13.1s6.8,4.5,11.9,4.5c1.8,0,3.6-0.2,5.3-0.6c1.8-0.4,3.3-0.9,4.7-1.6
		c1.5-0.7,2.8-1.3,3.8-1.9c1-0.6,1.9-1.2,2.5-1.8h0.1c8.1-6.8,13.3-17,13.3-28.4C77.8,17,61.3,0.5,40.8,0.5z"/>
	<path class="st0" d="M55,38c-1-1.2-2.2-2.2-3.7-2.8c-1.5-0.6-3.4-1-5.6-1c-2.2,0-4.1,0.3-5.6,1c-1.5,0.6-2.9,1.6-4.2,2.9
		c-1.2,1.3-2.2,2.7-2.8,4.3c-0.6,1.6-1.1,3.4-1.2,5.4h26c-0.1-2.2-0.3-4.1-0.8-5.8S55.8,39.1,55,38z"/>
</g>
</svg>
