<?xml version="1.0" encoding="utf-8"?>
<!-- Generator: Adobe Illustrator 19.2.0, SVG Export Plug-In . SVG Version: 6.00 Build 0)  -->
<!DOCTYPE svg PUBLIC "-//W3C//DTD SVG 1.1//EN" "http://www.w3.org/Graphics/SVG/1.1/DTD/svg11.dtd">
<svg version="1.1" id="Ebene_1" xmlns="http://www.w3.org/2000/svg" xmlns:xlink="http://www.w3.org/1999/xlink" x="0px" y="0px"
	 viewBox="0 0 193 50.8" style="enable-background:new 0 0 193 50.8;" xml:space="preserve">
<style type="text/css">
	.st0{fill:#FFFFFF;}
	.st1{fill:#005094;}
	.st2{fill:#4E7FBC;}
</style>
<path class="st0" d="M36.3,45.4l3.3-1.9l4.5-4.4l0.5-6l-2.2-8.5l-3.8-5.9l-9.3-2.7l-9.8,2l-8.6,2.4L7.8,33.8l6.3,12.1l2.9,3.3
	c2.7,1,5.6,1.5,8.6,1.5c4.2,0,8.2-1.1,11.7-2.9L36.3,45.4z"/>
<g>
	<path class="st1" d="M66.8,38.8c0,0.8-0.2,1.4-0.6,1.8c-0.4,0.4-0.9,0.6-1.5,0.6c-0.6,0-1.1-0.2-1.5-0.6c-0.4-0.4-0.5-1-0.5-1.7
		c0-0.8,0.2-1.3,0.6-1.8c0.4-0.4,0.9-0.6,1.5-0.6c0.6,0,1.1,0.2,1.5,0.6C66.7,37.4,66.8,38,66.8,38.8z M66,38.8c0-0.6-0.1-1-0.3-1.3
		c-0.2-0.3-0.5-0.4-0.9-0.4c-0.4,0-0.7,0.1-0.9,0.4c-0.2,0.3-0.3,0.7-0.3,1.3c0,0.6,0.1,1,0.3,1.3c0.2,0.3,0.5,0.4,0.9,0.4
		c0.4,0,0.7-0.1,0.9-0.4C65.9,39.8,66,39.3,66,38.8z"/>
	<path class="st1" d="M71.6,38.6c0,0.8-0.2,1.4-0.5,1.8c-0.4,0.4-0.8,0.7-1.4,0.7c-0.2,0-0.4,0-0.6-0.1c-0.2-0.1-0.4-0.1-0.5-0.2
		v1.9h-0.8v-6.2h0.8V37c0.2-0.2,0.4-0.3,0.6-0.4c0.2-0.1,0.5-0.2,0.8-0.2c0.5,0,0.9,0.2,1.2,0.6C71.4,37.4,71.6,37.9,71.6,38.6z
		 M70.8,38.7c0-0.5-0.1-0.9-0.2-1.2c-0.2-0.3-0.4-0.4-0.8-0.4c-0.2,0-0.4,0-0.6,0.1c-0.2,0.1-0.4,0.2-0.6,0.4v2.6
		c0.2,0.1,0.4,0.2,0.5,0.2s0.3,0.1,0.5,0.1c0.4,0,0.7-0.1,0.9-0.4C70.7,39.7,70.8,39.3,70.8,38.7z"/>
	<path class="st1" d="M74.5,41.1c-0.7,0-1.3-0.2-1.7-0.6c-0.4-0.4-0.6-1-0.6-1.7c0-0.7,0.2-1.3,0.6-1.8c0.4-0.4,0.9-0.7,1.5-0.7
		c0.3,0,0.5,0,0.7,0.1s0.4,0.2,0.6,0.4c0.2,0.2,0.3,0.4,0.4,0.6c0.1,0.3,0.1,0.6,0.1,0.9v0.4H73c0,0.5,0.1,0.9,0.4,1.2
		s0.6,0.4,1.1,0.4c0.2,0,0.3,0,0.5-0.1c0.2,0,0.3-0.1,0.4-0.1c0.1-0.1,0.3-0.1,0.3-0.2C75.9,40,76,40,76,39.9h0v0.8
		c-0.1,0-0.2,0.1-0.3,0.1S75.5,41,75.4,41c-0.1,0-0.3,0.1-0.4,0.1C74.8,41.1,74.7,41.1,74.5,41.1z M75.4,38.3c0-0.2,0-0.4-0.1-0.5
		c0-0.1-0.1-0.3-0.2-0.4c-0.1-0.1-0.2-0.2-0.3-0.3S74.5,37,74.3,37c-0.2,0-0.4,0-0.5,0.1c-0.1,0.1-0.3,0.1-0.4,0.3
		c-0.1,0.1-0.2,0.3-0.3,0.4c-0.1,0.1-0.1,0.3-0.1,0.5H75.4z"/>
	<path class="st1" d="M80.6,41h-0.8v-2.6c0-0.2,0-0.4,0-0.6c0-0.2-0.1-0.3-0.1-0.4c-0.1-0.1-0.1-0.2-0.3-0.3
		c-0.1-0.1-0.3-0.1-0.5-0.1c-0.2,0-0.4,0.1-0.6,0.2s-0.4,0.2-0.6,0.4V41h-0.8v-4.5h0.8V37c0.2-0.2,0.5-0.4,0.7-0.5
		c0.2-0.1,0.5-0.2,0.7-0.2c0.4,0,0.8,0.1,1,0.4s0.4,0.7,0.4,1.3V41z"/>
	<path class="st1" d="M85.9,41.1c-0.3,0-0.6,0-0.9-0.1c-0.3-0.1-0.5-0.2-0.7-0.3v-0.9h0c0.1,0.1,0.1,0.1,0.2,0.2
		c0.1,0.1,0.2,0.1,0.4,0.2c0.1,0.1,0.3,0.1,0.4,0.2c0.2,0,0.3,0.1,0.5,0.1c0.1,0,0.3,0,0.4,0c0.1,0,0.2-0.1,0.3-0.1
		c0.1-0.1,0.2-0.1,0.2-0.2s0.1-0.2,0.1-0.3c0-0.2,0-0.3-0.1-0.4c-0.1-0.1-0.3-0.2-0.5-0.2c-0.1,0-0.2-0.1-0.4-0.1
		c-0.2,0-0.3-0.1-0.4-0.1c-0.3-0.1-0.6-0.3-0.8-0.5s-0.2-0.5-0.2-0.8c0-0.4,0.2-0.7,0.5-1c0.3-0.3,0.7-0.4,1.2-0.4
		c0.3,0,0.5,0,0.8,0.1c0.3,0.1,0.5,0.1,0.6,0.2v0.8h0c-0.2-0.2-0.4-0.3-0.7-0.4C86.5,37.1,86.3,37,86,37c-0.3,0-0.5,0.1-0.6,0.2
		c-0.2,0.1-0.3,0.3-0.3,0.5c0,0.2,0.1,0.3,0.2,0.4c0.1,0.1,0.3,0.2,0.5,0.2c0.1,0,0.2,0.1,0.4,0.1c0.1,0,0.3,0.1,0.4,0.1
		c0.3,0.1,0.6,0.2,0.8,0.4c0.2,0.2,0.3,0.5,0.3,0.8c0,0.2,0,0.4-0.1,0.6s-0.2,0.3-0.3,0.4C87,40.9,86.8,41,86.6,41
		C86.4,41.1,86.2,41.1,85.9,41.1z"/>
	<path class="st1" d="M92.2,38.8c0,0.8-0.2,1.4-0.6,1.8c-0.4,0.4-0.9,0.6-1.5,0.6c-0.6,0-1.1-0.2-1.5-0.6c-0.4-0.4-0.5-1-0.5-1.7
		c0-0.8,0.2-1.3,0.6-1.8c0.4-0.4,0.9-0.6,1.5-0.6c0.6,0,1.1,0.2,1.5,0.6C92,37.4,92.2,38,92.2,38.8z M91.4,38.8c0-0.6-0.1-1-0.3-1.3
		c-0.2-0.3-0.5-0.4-0.9-0.4c-0.4,0-0.7,0.1-0.9,0.4c-0.2,0.3-0.3,0.7-0.3,1.3c0,0.6,0.1,1,0.3,1.3c0.2,0.3,0.5,0.4,0.9,0.4
		c0.4,0,0.7-0.1,0.9-0.4C91.3,39.8,91.4,39.3,91.4,38.8z"/>
	<path class="st1" d="M96.7,41h-0.8v-0.5c-0.2,0.2-0.5,0.4-0.7,0.5c-0.2,0.1-0.4,0.2-0.7,0.2c-0.2,0-0.4,0-0.6-0.1
		c-0.2-0.1-0.3-0.2-0.5-0.3s-0.2-0.3-0.3-0.5c-0.1-0.2-0.1-0.5-0.1-0.8v-2.9h0.8v2.6c0,0.2,0,0.4,0,0.6S94,40,94,40.1
		c0.1,0.1,0.1,0.2,0.3,0.3c0.1,0.1,0.3,0.1,0.5,0.1c0.2,0,0.4-0.1,0.6-0.2c0.2-0.1,0.4-0.2,0.6-0.4v-3.4h0.8V41z"/>
	<path class="st1" d="M100.4,37.3L100.4,37.3c-0.1,0-0.2,0-0.2,0c-0.1,0-0.1,0-0.2,0c-0.2,0-0.4,0-0.6,0.1c-0.2,0.1-0.4,0.2-0.6,0.4
		V41H98v-4.5h0.8v0.7c0.3-0.2,0.5-0.4,0.7-0.5c0.2-0.1,0.4-0.2,0.6-0.2c0.1,0,0.1,0,0.2,0c0,0,0.1,0,0.1,0V37.3z"/>
	<path class="st1" d="M102.9,41.1c-0.3,0-0.6,0-0.9-0.1c-0.3-0.1-0.5-0.2-0.7-0.4s-0.3-0.4-0.4-0.7c-0.1-0.3-0.2-0.6-0.2-1
		c0-0.4,0.1-0.7,0.2-1s0.2-0.5,0.4-0.7c0.2-0.2,0.4-0.3,0.7-0.5c0.3-0.1,0.6-0.2,0.9-0.2c0.2,0,0.5,0,0.7,0.1
		c0.2,0.1,0.4,0.2,0.6,0.2v0.9h0c-0.1,0-0.1-0.1-0.2-0.2c-0.1-0.1-0.2-0.1-0.3-0.2c-0.1-0.1-0.2-0.1-0.4-0.1c-0.1,0-0.3-0.1-0.4-0.1
		c-0.4,0-0.7,0.2-1,0.4c-0.2,0.3-0.4,0.7-0.4,1.3c0,0.5,0.1,1,0.3,1.3c0.2,0.3,0.6,0.4,1,0.4c0.2,0,0.5-0.1,0.7-0.2
		c0.2-0.1,0.4-0.2,0.6-0.4h0v0.9c-0.1,0-0.2,0.1-0.3,0.1c-0.1,0-0.2,0.1-0.3,0.1c-0.1,0-0.2,0.1-0.3,0.1
		C103.2,41.1,103.1,41.1,102.9,41.1z"/>
	<path class="st1" d="M107.1,41.1c-0.7,0-1.3-0.2-1.7-0.6c-0.4-0.4-0.6-1-0.6-1.7c0-0.7,0.2-1.3,0.6-1.8c0.4-0.4,0.9-0.7,1.5-0.7
		c0.3,0,0.5,0,0.7,0.1s0.4,0.2,0.6,0.4c0.2,0.2,0.3,0.4,0.4,0.6c0.1,0.3,0.1,0.6,0.1,0.9v0.4h-3.1c0,0.5,0.1,0.9,0.4,1.2
		s0.6,0.4,1.1,0.4c0.2,0,0.3,0,0.5-0.1c0.2,0,0.3-0.1,0.4-0.1c0.1-0.1,0.3-0.1,0.3-0.2c0.1-0.1,0.2-0.1,0.2-0.2h0v0.8
		c-0.1,0-0.2,0.1-0.3,0.1S108,41,107.9,41c-0.1,0-0.3,0.1-0.4,0.1C107.4,41.1,107.2,41.1,107.1,41.1z M107.9,38.3
		c0-0.2,0-0.4-0.1-0.5c0-0.1-0.1-0.3-0.2-0.4c-0.1-0.1-0.2-0.2-0.3-0.3S107,37,106.8,37c-0.2,0-0.4,0-0.5,0.1
		c-0.1,0.1-0.3,0.1-0.4,0.3c-0.1,0.1-0.2,0.3-0.3,0.4c-0.1,0.1-0.1,0.3-0.1,0.5H107.9z"/>
</g>
<g>
	<path class="st2" d="M114.2,41.1c-0.3,0-0.6,0-0.9-0.1c-0.3-0.1-0.5-0.2-0.7-0.4s-0.3-0.4-0.4-0.7c-0.1-0.3-0.2-0.6-0.2-1
		c0-0.4,0.1-0.7,0.2-1s0.2-0.5,0.4-0.7c0.2-0.2,0.4-0.3,0.7-0.5c0.3-0.1,0.6-0.2,0.9-0.2c0.2,0,0.5,0,0.7,0.1
		c0.2,0.1,0.4,0.2,0.6,0.2v0.9h0c-0.1,0-0.1-0.1-0.2-0.2c-0.1-0.1-0.2-0.1-0.3-0.2c-0.1-0.1-0.2-0.1-0.4-0.1c-0.1,0-0.3-0.1-0.4-0.1
		c-0.4,0-0.7,0.2-1,0.4c-0.2,0.3-0.4,0.7-0.4,1.3c0,0.5,0.1,1,0.3,1.3c0.2,0.3,0.6,0.4,1,0.4c0.2,0,0.5-0.1,0.7-0.2
		c0.2-0.1,0.4-0.2,0.6-0.4h0v0.9c-0.1,0-0.2,0.1-0.3,0.1c-0.1,0-0.2,0.1-0.3,0.1c-0.1,0-0.2,0.1-0.3,0.1
		C114.5,41.1,114.4,41.1,114.2,41.1z"/>
	<path class="st2" d="M120.1,38.8c0,0.8-0.2,1.4-0.6,1.8c-0.4,0.4-0.9,0.6-1.5,0.6c-0.6,0-1.1-0.2-1.5-0.6c-0.4-0.4-0.5-1-0.5-1.7
		c0-0.8,0.2-1.3,0.6-1.8c0.4-0.4,0.9-0.6,1.5-0.6c0.6,0,1.1,0.2,1.5,0.6C119.9,37.4,120.1,38,120.1,38.8z M119.3,38.8
		c0-0.6-0.1-1-0.3-1.3c-0.2-0.3-0.5-0.4-0.9-0.4c-0.4,0-0.7,0.1-0.9,0.4c-0.2,0.3-0.3,0.7-0.3,1.3c0,0.6,0.1,1,0.3,1.3
		c0.2,0.3,0.5,0.4,0.9,0.4c0.4,0,0.7-0.1,0.9-0.4C119.2,39.8,119.3,39.3,119.3,38.8z"/>
	<path class="st2" d="M124.6,41h-0.8v-2.6c0-0.2,0-0.4,0-0.6c0-0.2-0.1-0.3-0.1-0.4c-0.1-0.1-0.1-0.2-0.3-0.3
		c-0.1-0.1-0.3-0.1-0.5-0.1c-0.2,0-0.4,0.1-0.6,0.2s-0.4,0.2-0.6,0.4V41h-0.8v-4.5h0.8V37c0.2-0.2,0.5-0.4,0.7-0.5
		c0.2-0.1,0.5-0.2,0.7-0.2c0.4,0,0.8,0.1,1,0.4s0.4,0.7,0.4,1.3V41z"/>
	<path class="st2" d="M127.2,41.1c-0.4,0-0.7-0.1-1-0.4c-0.2-0.2-0.3-0.6-0.3-1.1v-2.5h-0.5v-0.6h0.5v-1.3h0.8v1.3h1.4v0.6h-1.4v2.2
		c0,0.2,0,0.4,0,0.5c0,0.1,0,0.2,0.1,0.3c0,0.1,0.1,0.2,0.2,0.2c0.1,0,0.2,0.1,0.4,0.1c0.1,0,0.2,0,0.4-0.1c0.1,0,0.2-0.1,0.3-0.1h0
		V41c-0.1,0-0.3,0.1-0.4,0.1C127.5,41.1,127.4,41.1,127.2,41.1z"/>
	<path class="st2" d="M130.8,41.1c-0.7,0-1.3-0.2-1.7-0.6c-0.4-0.4-0.6-1-0.6-1.7c0-0.7,0.2-1.3,0.6-1.8c0.4-0.4,0.9-0.7,1.5-0.7
		c0.3,0,0.5,0,0.7,0.1s0.4,0.2,0.6,0.4c0.2,0.2,0.3,0.4,0.4,0.6c0.1,0.3,0.1,0.6,0.1,0.9v0.4h-3.1c0,0.5,0.1,0.9,0.4,1.2
		s0.6,0.4,1.1,0.4c0.2,0,0.3,0,0.5-0.1c0.2,0,0.3-0.1,0.4-0.1c0.1-0.1,0.3-0.1,0.3-0.2c0.1-0.1,0.2-0.1,0.2-0.2h0v0.8
		c-0.1,0-0.2,0.1-0.3,0.1s-0.3,0.1-0.4,0.1c-0.1,0-0.3,0.1-0.4,0.1C131.1,41.1,131,41.1,130.8,41.1z M131.7,38.3
		c0-0.2,0-0.4-0.1-0.5c0-0.1-0.1-0.3-0.2-0.4c-0.1-0.1-0.2-0.2-0.3-0.3s-0.3-0.1-0.5-0.1c-0.2,0-0.4,0-0.5,0.1
		c-0.1,0.1-0.3,0.1-0.4,0.3c-0.1,0.1-0.2,0.3-0.3,0.4c-0.1,0.1-0.1,0.3-0.1,0.5H131.7z"/>
	<path class="st2" d="M136.9,41h-0.8v-2.6c0-0.2,0-0.4,0-0.6c0-0.2-0.1-0.3-0.1-0.4c-0.1-0.1-0.1-0.2-0.3-0.3
		c-0.1-0.1-0.3-0.1-0.5-0.1c-0.2,0-0.4,0.1-0.6,0.2s-0.4,0.2-0.6,0.4V41h-0.8v-4.5h0.8V37c0.2-0.2,0.5-0.4,0.7-0.5
		c0.2-0.1,0.5-0.2,0.7-0.2c0.4,0,0.8,0.1,1,0.4s0.4,0.7,0.4,1.3V41z"/>
	<path class="st2" d="M139.5,41.1c-0.4,0-0.7-0.1-1-0.4c-0.2-0.2-0.3-0.6-0.3-1.1v-2.5h-0.5v-0.6h0.5v-1.3h0.8v1.3h1.4v0.6H139v2.2
		c0,0.2,0,0.4,0,0.5c0,0.1,0,0.2,0.1,0.3c0,0.1,0.1,0.2,0.2,0.2c0.1,0,0.2,0.1,0.4,0.1c0.1,0,0.2,0,0.4-0.1c0.1,0,0.2-0.1,0.3-0.1h0
		V41c-0.1,0-0.3,0.1-0.4,0.1C139.8,41.1,139.6,41.1,139.5,41.1z"/>
	<path class="st2" d="M149,41v-2.6c0-0.2,0-0.4,0-0.6c0-0.2,0-0.3-0.1-0.4c-0.1-0.1-0.1-0.2-0.2-0.2s-0.2-0.1-0.4-0.1
		c-0.2,0-0.3,0-0.5,0.1c-0.2,0.1-0.4,0.2-0.6,0.4c0,0,0,0.1,0,0.2s0,0.1,0,0.2v3h-0.8v-2.6c0-0.2,0-0.4,0-0.6c0-0.2-0.1-0.3-0.1-0.4
		c-0.1-0.1-0.1-0.2-0.2-0.2c-0.1-0.1-0.2-0.1-0.4-0.1c-0.2,0-0.3,0.1-0.5,0.2c-0.2,0.1-0.4,0.2-0.5,0.4V41h-0.8v-4.5h0.8V37
		c0.2-0.2,0.4-0.4,0.6-0.5c0.2-0.1,0.4-0.2,0.6-0.2c0.3,0,0.5,0.1,0.7,0.2c0.2,0.1,0.4,0.3,0.5,0.6c0.2-0.3,0.5-0.5,0.7-0.6
		s0.5-0.2,0.7-0.2c0.2,0,0.4,0,0.5,0.1c0.2,0.1,0.3,0.2,0.4,0.3c0.1,0.1,0.2,0.3,0.3,0.5s0.1,0.5,0.1,0.8v3H149z"/>
	<path class="st2" d="M153.5,40.5c-0.1,0-0.1,0.1-0.2,0.2c-0.1,0.1-0.2,0.1-0.3,0.2c-0.1,0.1-0.3,0.1-0.4,0.2s-0.3,0.1-0.5,0.1
		c-0.2,0-0.4,0-0.5-0.1s-0.3-0.2-0.4-0.3c-0.1-0.1-0.2-0.3-0.3-0.5c-0.1-0.2-0.1-0.4-0.1-0.6c0-0.3,0.1-0.6,0.2-0.8
		c0.1-0.2,0.3-0.4,0.6-0.5c0.3-0.1,0.6-0.2,0.9-0.2c0.3,0,0.7-0.1,1.1-0.1v-0.1c0-0.2,0-0.3-0.1-0.4c-0.1-0.1-0.1-0.2-0.2-0.3
		c-0.1-0.1-0.2-0.1-0.4-0.1c-0.1,0-0.3,0-0.4,0c-0.2,0-0.4,0-0.6,0.1c-0.2,0.1-0.5,0.1-0.7,0.2h0v-0.8c0.1,0,0.3-0.1,0.6-0.1
		s0.5-0.1,0.8-0.1c0.3,0,0.6,0,0.8,0.1s0.4,0.1,0.6,0.3c0.2,0.1,0.3,0.3,0.4,0.5c0.1,0.2,0.1,0.4,0.1,0.7V41h-0.8V40.5z M153.5,39.9
		v-1.3c-0.2,0-0.4,0-0.7,0.1c-0.3,0-0.5,0.1-0.7,0.1c-0.2,0.1-0.4,0.2-0.5,0.3s-0.2,0.3-0.2,0.5c0,0.3,0.1,0.5,0.2,0.6
		c0.1,0.1,0.4,0.2,0.6,0.2c0.2,0,0.5-0.1,0.7-0.2S153.3,40.1,153.5,39.9z"/>
	<path class="st2" d="M159.1,41h-0.8v-2.6c0-0.2,0-0.4,0-0.6c0-0.2-0.1-0.3-0.1-0.4c-0.1-0.1-0.1-0.2-0.3-0.3
		c-0.1-0.1-0.3-0.1-0.5-0.1c-0.2,0-0.4,0.1-0.6,0.2s-0.4,0.2-0.6,0.4V41h-0.8v-4.5h0.8V37c0.2-0.2,0.5-0.4,0.7-0.5
		c0.2-0.1,0.5-0.2,0.7-0.2c0.4,0,0.8,0.1,1,0.4s0.4,0.7,0.4,1.3V41z"/>
	<path class="st2" d="M162.8,40.5c-0.1,0-0.1,0.1-0.2,0.2c-0.1,0.1-0.2,0.1-0.3,0.2c-0.1,0.1-0.3,0.1-0.4,0.2s-0.3,0.1-0.5,0.1
		c-0.2,0-0.4,0-0.5-0.1s-0.3-0.2-0.4-0.3c-0.1-0.1-0.2-0.3-0.3-0.5c-0.1-0.2-0.1-0.4-0.1-0.6c0-0.3,0.1-0.6,0.2-0.8
		c0.1-0.2,0.3-0.4,0.6-0.5c0.3-0.1,0.6-0.2,0.9-0.2c0.3,0,0.7-0.1,1.1-0.1v-0.1c0-0.2,0-0.3-0.1-0.4c-0.1-0.1-0.1-0.2-0.2-0.3
		c-0.1-0.1-0.2-0.1-0.4-0.1c-0.1,0-0.3,0-0.4,0c-0.2,0-0.4,0-0.6,0.1c-0.2,0.1-0.5,0.1-0.7,0.2h0v-0.8c0.1,0,0.3-0.1,0.6-0.1
		s0.5-0.1,0.8-0.1c0.3,0,0.6,0,0.8,0.1s0.4,0.1,0.6,0.3c0.2,0.1,0.3,0.3,0.4,0.5c0.1,0.2,0.1,0.4,0.1,0.7V41h-0.8V40.5z M162.8,39.9
		v-1.3c-0.2,0-0.4,0-0.7,0.1c-0.3,0-0.5,0.1-0.7,0.1c-0.2,0.1-0.4,0.2-0.5,0.3s-0.2,0.3-0.2,0.5c0,0.3,0.1,0.5,0.2,0.6
		c0.1,0.1,0.4,0.2,0.6,0.2c0.2,0,0.5-0.1,0.7-0.2S162.7,40.1,162.8,39.9z"/>
	<path class="st2" d="M165,41.8c0.1,0,0.1,0.1,0.2,0.1c0.1,0,0.2,0.1,0.3,0.1c0.1,0,0.3,0.1,0.4,0.1s0.2,0,0.4,0
		c0.2,0,0.4,0,0.6-0.1c0.2-0.1,0.3-0.1,0.4-0.3c0.1-0.1,0.1-0.2,0.2-0.4s0.1-0.3,0.1-0.5v-0.4c-0.2,0.2-0.4,0.3-0.6,0.4
		c-0.2,0.1-0.4,0.1-0.7,0.1c-0.5,0-0.9-0.2-1.2-0.6c-0.3-0.4-0.5-0.9-0.5-1.7c0-0.4,0.1-0.7,0.2-1s0.2-0.5,0.4-0.7
		c0.2-0.2,0.4-0.3,0.6-0.5c0.2-0.1,0.5-0.2,0.7-0.2c0.2,0,0.4,0,0.6,0.1c0.2,0.1,0.3,0.1,0.5,0.2l0-0.2h0.7v4c0,0.8-0.2,1.3-0.5,1.7
		s-0.8,0.5-1.5,0.5c-0.2,0-0.4,0-0.7-0.1c-0.2,0-0.4-0.1-0.6-0.1L165,41.8L165,41.8z M167.6,39.8v-2.5c-0.2-0.1-0.4-0.2-0.5-0.2
		s-0.3-0.1-0.5-0.1c-0.4,0-0.7,0.1-0.9,0.4c-0.2,0.3-0.3,0.7-0.3,1.2c0,0.5,0.1,0.9,0.3,1.2s0.4,0.4,0.8,0.4c0.2,0,0.4,0,0.6-0.1
		C167.2,40,167.4,39.9,167.6,39.8z"/>
	<path class="st2" d="M171.6,41.1c-0.7,0-1.3-0.2-1.7-0.6c-0.4-0.4-0.6-1-0.6-1.7c0-0.7,0.2-1.3,0.6-1.8c0.4-0.4,0.9-0.7,1.5-0.7
		c0.3,0,0.5,0,0.7,0.1s0.4,0.2,0.6,0.4c0.2,0.2,0.3,0.4,0.4,0.6c0.1,0.3,0.1,0.6,0.1,0.9v0.4h-3.1c0,0.5,0.1,0.9,0.4,1.2
		s0.6,0.4,1.1,0.4c0.2,0,0.3,0,0.5-0.1c0.2,0,0.3-0.1,0.4-0.1c0.1-0.1,0.3-0.1,0.3-0.2c0.1-0.1,0.2-0.1,0.2-0.2h0v0.8
		c-0.1,0-0.2,0.1-0.3,0.1s-0.3,0.1-0.4,0.1c-0.1,0-0.3,0.1-0.4,0.1C171.9,41.1,171.7,41.1,171.6,41.1z M172.5,38.3
		c0-0.2,0-0.4-0.1-0.5c0-0.1-0.1-0.3-0.2-0.4c-0.1-0.1-0.2-0.2-0.3-0.3s-0.3-0.1-0.5-0.1c-0.2,0-0.4,0-0.5,0.1
		c-0.1,0.1-0.3,0.1-0.4,0.3c-0.1,0.1-0.2,0.3-0.3,0.4c-0.1,0.1-0.1,0.3-0.1,0.5H172.5z"/>
	<path class="st2" d="M179.3,41v-2.6c0-0.2,0-0.4,0-0.6c0-0.2,0-0.3-0.1-0.4c-0.1-0.1-0.1-0.2-0.2-0.2s-0.2-0.1-0.4-0.1
		c-0.2,0-0.3,0-0.5,0.1c-0.2,0.1-0.4,0.2-0.6,0.4c0,0,0,0.1,0,0.2s0,0.1,0,0.2v3h-0.8v-2.6c0-0.2,0-0.4,0-0.6c0-0.2-0.1-0.3-0.1-0.4
		c-0.1-0.1-0.1-0.2-0.2-0.2c-0.1-0.1-0.2-0.1-0.4-0.1c-0.2,0-0.3,0.1-0.5,0.2c-0.2,0.1-0.4,0.2-0.5,0.4V41h-0.8v-4.5h0.8V37
		c0.2-0.2,0.4-0.4,0.6-0.5c0.2-0.1,0.4-0.2,0.6-0.2c0.3,0,0.5,0.1,0.7,0.2c0.2,0.1,0.4,0.3,0.5,0.6c0.2-0.3,0.5-0.5,0.7-0.6
		s0.5-0.2,0.7-0.2c0.2,0,0.4,0,0.5,0.1c0.2,0.1,0.3,0.2,0.4,0.3c0.1,0.1,0.2,0.3,0.3,0.5s0.1,0.5,0.1,0.8v3H179.3z"/>
	<path class="st2" d="M183.2,41.1c-0.7,0-1.3-0.2-1.7-0.6c-0.4-0.4-0.6-1-0.6-1.7c0-0.7,0.2-1.3,0.6-1.8c0.4-0.4,0.9-0.7,1.5-0.7
		c0.3,0,0.5,0,0.7,0.1s0.4,0.2,0.6,0.4c0.2,0.2,0.3,0.4,0.4,0.6c0.1,0.3,0.1,0.6,0.1,0.9v0.4h-3.1c0,0.5,0.1,0.9,0.4,1.2
		s0.6,0.4,1.1,0.4c0.2,0,0.3,0,0.5-0.1c0.2,0,0.3-0.1,0.4-0.1c0.1-0.1,0.3-0.1,0.3-0.2c0.1-0.1,0.2-0.1,0.2-0.2h0v0.8
		c-0.1,0-0.2,0.1-0.3,0.1s-0.3,0.1-0.4,0.1c-0.1,0-0.3,0.1-0.4,0.1C183.6,41.1,183.4,41.1,183.2,41.1z M184.1,38.3
		c0-0.2,0-0.4-0.1-0.5c0-0.1-0.1-0.3-0.2-0.4c-0.1-0.1-0.2-0.2-0.3-0.3S183.2,37,183,37c-0.2,0-0.4,0-0.5,0.1
		c-0.1,0.1-0.3,0.1-0.4,0.3c-0.1,0.1-0.2,0.3-0.3,0.4c-0.1,0.1-0.1,0.3-0.1,0.5H184.1z"/>
	<path class="st2" d="M189.4,41h-0.8v-2.6c0-0.2,0-0.4,0-0.6c0-0.2-0.1-0.3-0.1-0.4c-0.1-0.1-0.1-0.2-0.3-0.3
		c-0.1-0.1-0.3-0.1-0.5-0.1c-0.2,0-0.4,0.1-0.6,0.2s-0.4,0.2-0.6,0.4V41h-0.8v-4.5h0.8V37c0.2-0.2,0.5-0.4,0.7-0.5
		c0.2-0.1,0.5-0.2,0.7-0.2c0.4,0,0.8,0.1,1,0.4s0.4,0.7,0.4,1.3V41z"/>
	<path class="st2" d="M192,41.1c-0.4,0-0.7-0.1-1-0.4c-0.2-0.2-0.3-0.6-0.3-1.1v-2.5h-0.5v-0.6h0.5v-1.3h0.8v1.3h1.4v0.6h-1.4v2.2
		c0,0.2,0,0.4,0,0.5c0,0.1,0,0.2,0.1,0.3c0,0.1,0.1,0.2,0.2,0.2c0.1,0,0.2,0.1,0.4,0.1c0.1,0,0.2,0,0.4-0.1c0.1,0,0.2-0.1,0.3-0.1h0
		V41c-0.1,0-0.3,0.1-0.4,0.1C192.2,41.1,192.1,41.1,192,41.1z"/>
</g>
<g>
	<path class="st1" d="M82.1,15.3l-3.8,15.1h-2.4l-3.7-11.7l-3.7,11.7h-2.3l-3.9-15.1H65L67.7,27l3.6-11.7h2.1L77,27l2.5-11.7H82.1z"
		/>
	<path class="st1" d="M90.8,30.8c-2.4,0-4.3-0.7-5.6-2c-1.3-1.4-2-3.3-2-5.8c0-2.5,0.6-4.4,1.9-5.9c1.3-1.5,3-2.2,5.1-2.2
		c0.9,0,1.8,0.1,2.5,0.4c0.7,0.3,1.4,0.7,1.9,1.3c0.5,0.6,1,1.3,1.2,2.1c0.3,0.8,0.4,1.9,0.4,3.1v1.4H85.8c0,1.8,0.4,3.1,1.3,4
		c0.9,0.9,2.1,1.4,3.7,1.4c0.6,0,1.1-0.1,1.6-0.2c0.5-0.1,1-0.3,1.5-0.5c0.5-0.2,0.8-0.4,1.2-0.6c0.3-0.2,0.6-0.4,0.8-0.5H96v2.8
		c-0.3,0.1-0.7,0.3-1.1,0.4c-0.4,0.2-0.8,0.3-1.2,0.4c-0.5,0.1-0.9,0.2-1.3,0.3C91.9,30.7,91.4,30.8,90.8,30.8z M93.8,21.2
		c0-0.7-0.1-1.3-0.2-1.8c-0.1-0.5-0.4-0.9-0.6-1.3c-0.3-0.4-0.7-0.7-1.1-0.9c-0.5-0.2-1-0.3-1.7-0.3c-0.7,0-1.3,0.1-1.7,0.3
		c-0.5,0.2-0.9,0.5-1.3,0.9c-0.4,0.4-0.7,0.8-0.9,1.3c-0.2,0.5-0.3,1-0.4,1.7H93.8z"/>
	<path class="st1" d="M111.4,22.6c0,2.5-0.6,4.5-1.8,6c-1.2,1.5-2.7,2.3-4.5,2.3c-0.8,0-1.5-0.1-2.1-0.3c-0.6-0.2-1.2-0.5-1.7-0.8
		l-0.2,0.7h-2.4V9.3h2.5v7.5c0.6-0.6,1.3-1.1,2.1-1.4c0.8-0.4,1.6-0.6,2.5-0.6c1.7,0,3.1,0.7,4,2.1
		C110.9,18.3,111.4,20.2,111.4,22.6z M108.8,22.8c0-1.8-0.3-3.2-0.8-4.1c-0.6-0.9-1.4-1.4-2.7-1.4c-0.7,0-1.4,0.2-2.1,0.5
		s-1.4,0.7-1.9,1.2v8.7c0.6,0.3,1.2,0.5,1.7,0.7c0.5,0.1,1,0.2,1.6,0.2c1.3,0,2.3-0.5,3.1-1.4C108.4,26.2,108.8,24.8,108.8,22.8z"/>
</g>
<g>
	<path class="st2" d="M114.1,30.4V10.2h12.6v2.4h-9.9v5.5h9.3v2.4h-9.3V28h9.9v2.4H114.1z"/>
	<path class="st2" d="M141,30.4h-2.5v-1.5c-0.4,0.3-0.7,0.6-1,0.8s-0.6,0.4-1,0.6c-0.4,0.2-0.7,0.3-1.1,0.4
		c-0.4,0.1-0.8,0.1-1.4,0.1c-0.8,0-1.6-0.2-2.3-0.5s-1.3-0.8-1.8-1.5c-0.5-0.7-0.9-1.5-1.2-2.5c-0.3-1-0.4-2.1-0.4-3.4
		c0-1.3,0.2-2.5,0.5-3.4c0.3-1,0.8-1.8,1.4-2.5c0.6-0.7,1.2-1.2,2-1.6c0.8-0.4,1.6-0.6,2.5-0.6c0.8,0,1.4,0.1,2,0.2
		c0.6,0.2,1.2,0.4,1.8,0.8V9.3h2.5V30.4z M138.4,26.7V18c-0.6-0.3-1.2-0.5-1.7-0.6c-0.5-0.1-1-0.2-1.6-0.2c-1.3,0-2.3,0.5-3.1,1.5
		c-0.7,1-1.1,2.4-1.1,4.2c0,1.8,0.3,3.1,0.9,4.1c0.6,0.9,1.5,1.4,2.7,1.4c0.7,0,1.3-0.2,2-0.5C137.2,27.7,137.8,27.3,138.4,26.7z"/>
	<path class="st2" d="M147.3,12.8h-2.9v-2.6h2.9V12.8z M147.1,30.4h-2.5V15.3h2.5V30.4z"/>
	<path class="st2" d="M155.4,30.7c-1.4,0-2.5-0.4-3.3-1.2c-0.8-0.8-1.2-2-1.2-3.7v-8.4h-1.7v-2.1h1.7v-4.3h2.5v4.3h4.7v2.1h-4.7v7.2
		c0,0.8,0,1.4,0,1.8s0.1,0.8,0.3,1.2c0.2,0.3,0.4,0.6,0.7,0.7c0.3,0.2,0.8,0.2,1.4,0.2c0.4,0,0.8-0.1,1.2-0.2
		c0.4-0.1,0.7-0.2,0.8-0.3h0.1v2.3c-0.5,0.1-1,0.2-1.5,0.3C156.2,30.7,155.8,30.7,155.4,30.7z"/>
	<path class="st2" d="M162.7,12.8h-2.9v-2.6h2.9V12.8z M162.5,30.4H160V15.3h2.5V30.4z"/>
	<path class="st2" d="M178.6,22.9c0,2.5-0.6,4.5-1.8,5.9c-1.2,1.4-2.9,2.1-4.9,2.1c-2.1,0-3.8-0.7-5-2.1s-1.8-3.4-1.8-5.8
		c0-2.5,0.6-4.5,1.9-5.9c1.2-1.4,2.9-2.1,4.9-2.1c2,0,3.7,0.7,4.9,2.1C178,18.4,178.6,20.3,178.6,22.9z M176,22.9
		c0-2-0.4-3.4-1.1-4.4c-0.7-1-1.7-1.4-3-1.4c-1.3,0-2.4,0.5-3.1,1.4s-1.1,2.4-1.1,4.4c0,1.9,0.4,3.3,1.1,4.3c0.7,1,1.7,1.5,3.1,1.5
		c1.3,0,2.3-0.5,3-1.4S176,24.8,176,22.9z"/>
	<path class="st2" d="M193,30.4h-2.5v-8.6c0-0.7,0-1.3-0.1-1.9c-0.1-0.6-0.2-1.1-0.4-1.4c-0.2-0.4-0.5-0.7-0.9-0.8
		c-0.4-0.2-0.9-0.3-1.5-0.3c-0.6,0-1.3,0.2-2,0.5s-1.3,0.8-2,1.3v11.3h-2.5V15.3h2.5V17c0.8-0.7,1.5-1.2,2.2-1.6
		c0.7-0.4,1.5-0.5,2.3-0.5c1.5,0,2.7,0.5,3.5,1.5c0.8,1,1.3,2.4,1.3,4.3V30.4z"/>
</g>
<path class="st1" d="M50.8,25.5c0-13.9-11.3-25.2-25.2-25.2C11.7,0.3,0.4,11.6,0.4,25.5c0,10.9,6.9,20.2,16.6,23.7
	c-2.5-3-3.8-7-3.8-12.2c0-5.5,1.4-9.8,4.3-13.1c2.9-3.2,6.6-4.9,11.3-4.9c2.1,0,3.9,0.3,5.5,0.9c1.6,0.6,3,1.5,4.2,2.8
	c1.2,1.3,2.1,2.9,2.8,4.7c0.6,1.9,1,4.1,1,6.8v3.1H19c0,3.9,1,6.9,3,9c2,2.1,4.7,3.1,8.2,3.1c1.2,0,2.5-0.1,3.7-0.4S36,48.4,37,48
	c0.2-0.1,0.3-0.2,0.5-0.2C45.4,43.5,50.8,35.2,50.8,25.5z"/>
<path class="st1" d="M36.2,29.2c-0.3-1.1-0.8-2-1.4-2.8c-0.7-0.8-1.5-1.5-2.5-1.9c-1-0.4-2.3-0.7-3.8-0.7c-1.5,0-2.8,0.2-3.8,0.7
	c-1.1,0.5-2,1.1-2.9,2c-0.8,0.9-1.5,1.9-1.9,2.9c-0.4,1.1-0.7,2.3-0.8,3.7h17.8C36.7,31.6,36.5,30.3,36.2,29.2z"/>
</svg>
